<?xml version="1.0" encoding="utf-8"?>
<!-- Generator: Adobe Illustrator 17.0.0, SVG Export Plug-In . SVG Version: 6.00 Build 0)  -->
<!DOCTYPE svg PUBLIC "-//W3C//DTD SVG 1.1//EN" "http://www.w3.org/Graphics/SVG/1.1/DTD/svg11.dtd">
<svg version="1.1" id="Layer_1" xmlns="http://www.w3.org/2000/svg" xmlns:xlink="http://www.w3.org/1999/xlink" x="0px" y="0px"
	 width="150px" height="150px" viewBox="0 0 150 150" enable-background="new 0 0 150 150" xml:space="preserve">
<g>
	<g>
		<path fill="#0091D2" d="M123.249,102.866c0.203,1.559-0.272,2.917-1.424,4.069l-13.532,13.429c-0.611,0.679-1.408,1.255-2.39,1.73
			c-0.983,0.475-1.951,0.78-2.9,0.916c-0.068,0-0.272,0.017-0.611,0.051c-0.338,0.034-0.779,0.051-1.322,0.051
			c-1.288,0-3.374-0.221-6.257-0.661c-2.883-0.441-6.411-1.526-10.581-3.256c-4.171-1.73-8.902-4.324-14.193-7.783
			c-5.29-3.459-10.92-8.207-16.888-14.243c-4.748-4.681-8.681-9.157-11.802-13.43c-3.12-4.273-5.629-8.223-7.529-11.853
			c-1.899-3.629-3.324-6.919-4.273-9.869c-0.95-2.95-1.594-5.493-1.933-7.63s-0.475-3.815-0.407-5.036
			c0.067-1.221,0.101-1.899,0.101-2.035c0.136-0.95,0.441-1.916,0.916-2.9c0.475-0.983,1.051-1.78,1.73-2.39l13.532-13.532
			c0.95-0.95,2.035-1.424,3.256-1.424c0.881,0,1.661,0.254,2.339,0.762c0.679,0.509,1.255,1.136,1.73,1.882l10.886,20.653
			c0.61,1.085,0.78,2.273,0.509,3.561c-0.271,1.289-0.848,2.374-1.73,3.256l-4.985,4.985c-0.136,0.136-0.254,0.356-0.356,0.661
			c-0.101,0.305-0.153,0.56-0.153,0.763c0.271,1.424,0.881,3.052,1.831,4.883c0.814,1.629,2.069,3.612,3.764,5.953
			c1.696,2.339,4.103,5.036,7.223,8.088c3.052,3.12,5.765,5.544,8.139,7.274c2.373,1.729,4.357,3.001,5.951,3.815
			c1.593,0.813,2.815,1.306,3.662,1.475l1.271,0.254c0.136,0,0.356-0.051,0.662-0.152c0.305-0.101,0.526-0.22,0.662-0.356l5.799-5.9
			c1.222-1.085,2.645-1.629,4.273-1.629c1.153,0,2.069,0.204,2.747,0.611h0.102l19.635,11.598
			C122.13,100.39,122.977,101.509,123.249,102.866L123.249,102.866z"/>
	</g>
</g>
<g>
	<g>
		<path fill="#CFDE00" d="M91.167,48.806c5.346,0,9.681-4.334,9.681-9.681s-4.334-9.681-9.681-9.681
			c-5.346,0-9.681,4.334-9.681,9.681S85.821,48.806,91.167,48.806z M99.139,49.944c0,0-4.271,4.271-7.972,7.972
			c-4.271-4.271-7.972-7.972-7.972-7.972c-6.122,1.958-9.111,5.086-9.111,9.681v10.25c0,2.611,6.637,5.125,17.083,5.125
			c10.446,0,17.083-2.514,17.083-5.125v-10.25C108.25,55.031,105.261,51.902,99.139,49.944z"/>
	</g>
</g>
</svg>
