<?xml version="1.0" standalone="no"?>
<!DOCTYPE svg PUBLIC "-//W3C//DTD SVG 1.1//EN" "http://www.w3.org/Graphics/SVG/1.1/DTD/svg11.dtd" >
<svg xmlns="http://www.w3.org/2000/svg">
<metadata></metadata>
<defs>
<font id="togetherregular" horiz-adv-x="1089" >
<font-face units-per-em="2048" ascent="1638" descent="-410" />
<missing-glyph horiz-adv-x="614" />
<glyph horiz-adv-x="0" />
<glyph unicode="&#xd;" horiz-adv-x="614" />
<glyph horiz-adv-x="0" />
<glyph horiz-adv-x="0" />
<glyph unicode=" "  horiz-adv-x="614" />
<glyph unicode="&#x09;" horiz-adv-x="614" />
<glyph unicode="&#xa0;" horiz-adv-x="614" />
<glyph unicode="!" horiz-adv-x="491" d="M53 111q10 47 47 82.5t84 35.5q45 0 71 -35.5t17 -82.5q-10 -47 -47 -79t-82 -32t-71.5 31.5t-18.5 79.5zM115 385l131 748q8 41 40.5 68.5t71.5 27.5q41 0 64.5 -27.5t15.5 -68.5l-131 -748q-8 -41 -41 -68.5t-71 -27.5h-2q-39 0 -63 27.5t-15 68.5z" />
<glyph unicode="&#x22;" horiz-adv-x="694" d="M145 1087l43 238q8 47 45 78t82 31q47 0 73 -31t18 -78l-41 -238q-8 -47 -46 -77.5t-83 -30.5t-72 30.5t-19 77.5zM473 1087l43 238q8 47 45 78t82 31q47 0 72.5 -31t17.5 -78l-43 -238q-8 -47 -45 -77.5t-82 -30.5q-47 0 -72.5 30.5t-17.5 77.5z" />
<glyph unicode="#" horiz-adv-x="1413" d="M55 395q8 47 45 79t84 32h176l39 217h-176q-47 0 -73.5 31.5t-18.5 76.5q8 47 46 78t85 31h176l31 176q8 47 45 80t84 33q45 0 71.5 -33t16.5 -80l-31 -176h219l31 176q8 47 45 80t82 33q47 0 72.5 -33t17.5 -80l-30 -176h176q47 0 73.5 -30.5t18.5 -78.5 q-8 -45 -46 -76.5t-85 -31.5h-176l-39 -217h178q47 0 73.5 -32t16.5 -79q-8 -45 -45 -76.5t-84 -31.5h-176l-33 -176q-8 -47 -45 -79t-82 -32q-47 0 -72.5 31.5t-17.5 79.5l31 176h-217l-31 -176q-10 -47 -47 -79t-82 -32t-71.5 31.5t-18.5 79.5l33 176h-179 q-45 0 -72.5 31.5t-17.5 76.5zM580 506h217l39 217h-220z" />
<glyph unicode="$" horiz-adv-x="1222" d="M55 104.5q8 38.5 39 71.5t80 33h262l51 301h-6q-100 6 -172 45q-31 16 -58.5 42t-46 63.5t-24.5 89t6 118.5q16 96 59.5 165t100.5 112t126 63.5t136 20.5h6l19 104q8 43 44 74t79 31t68.5 -31t17.5 -74l-19 -104h262q51 0 71 -33t12.5 -72t-39 -71.5t-80.5 -32.5h-263 l-53 -301h6q100 -6 172 -45q31 -16 58.5 -43t46 -65t26 -89t-5.5 -119q-16 -96 -59 -163.5t-100.5 -110.5t-126 -63.5t-138.5 -20.5h-6l-18 -104q-8 -43 -43 -74t-78 -31q-45 0 -69.5 31t-16.5 74l18 104h-262q-51 0 -70.5 33t-11.5 71.5zM395 868q-10 -61 24 -105t99 -44h6 l54 301h-7q-66 0 -115.5 -44t-60.5 -108zM643 209h6q68 0 118 44t60 105q10 63 -23.5 107.5t-101.5 44.5h-6z" />
<glyph unicode="%" horiz-adv-x="1167" d="M55 999q8 47 34 89t62.5 73t80.5 49.5t92 18.5q47 0 86 -18.5t64.5 -49.5t35.5 -73t2 -89t-33.5 -88t-61.5 -71.5t-81 -49t-92 -18.5t-86 18.5t-64.5 49t-36 71.5t-2.5 88zM93 -41q-9 41 20 88q53 88 114 186q53 86 119 191.5t135 218.5q162 262 371 596q29 47 79 70.5 t93 11.5q41 -12 50 -54t-19 -89l-369 -594q-70 -113 -135.5 -218.5t-118.5 -191.5q-61 -98 -117 -186q-29 -47 -79 -70.5t-91 -11.5q-43 12 -52 53zM199 1001q-6 -35 14 -59t55 -24t64.5 24.5t36.5 58.5q6 35 -14.5 59.5t-55.5 24.5t-64.5 -24.5t-35.5 -59.5zM655 229 q8 47 34 89t62.5 73t81 48.5t91.5 17.5q96 0 150 -65.5t38 -162.5q-8 -47 -32.5 -89t-61.5 -72.5t-82 -48t-92 -17.5t-85 17.5t-63.5 48t-37 72.5t-3.5 89zM801 229q-6 -35 14 -59.5t55 -24.5t64 25t35 59q6 35 -14.5 59.5t-55.5 24.5t-63.5 -24.5t-34.5 -59.5z" />
<glyph unicode="&#x26;" horiz-adv-x="1091" d="M57 309l17 97q8 49 36.5 90t67.5 76.5t83 66.5t85 55q-18 20 -36.5 44t-32 48.5t-20.5 52t-1 60.5l12 72q8 45 32 92t66 84t106.5 59.5t154.5 20.5q94 0 147 -24.5t79 -59.5t30 -78t-2 -80l-17 -82q-8 -43 -26.5 -75.5t-46 -59.5t-64.5 -51.5t-82 -52.5l166 -222l41 52 q33 43 76 48t73.5 -14.5t38 -58.5t-31.5 -84l-80 -96q20 -29 39 -51q16 -20 28.5 -37t16.5 -21q10 -18 15 -38.5t1 -45.5q-6 -27 -24.5 -48t-43 -33.5t-51 -14.5t-51.5 10q-8 4 -22.5 21.5t-28.5 36.5q-16 23 -35 47q-18 -16 -49 -37t-72 -38t-95 -28.5t-122 -11.5 q-86 0 -160.5 15.5t-129 50t-79 94t-8.5 149.5zM289 328q-8 -43 3 -71t35.5 -43t60.5 -21.5t79 -6.5q82 0 130 31t67 51l-209 283l-52 -33q-37 -25 -66.5 -55.5t-37.5 -77.5zM479 913q-8 -41 11.5 -66.5t41.5 -51.5q20 14 38 24t31 22.5t23.5 30t16.5 41.5l6 27q4 23 6 41 t-2 30.5t-19.5 19.5t-47.5 7q-29 0 -46.5 -4t-27.5 -14t-15.5 -29.5t-11.5 -50.5z" />
<glyph unicode="'" horiz-adv-x="366" d="M145 1087l43 238q8 47 45 78t82 31q47 0 73 -31t18 -78l-41 -238q-8 -47 -46 -77.5t-83 -30.5t-72 30.5t-19 77.5z" />
<glyph unicode="(" horiz-adv-x="651" d="M61.5 289q-22.5 176 12.5 348t119.5 329.5t209.5 282.5q14 14 37 30.5t48.5 26t50 7.5t43.5 -25q14 -18 16 -40.5t-5 -45t-19.5 -43t-26.5 -35.5q-96 -104 -165 -232t-96.5 -265.5t-11 -278.5t87.5 -272q23 -39 18 -87t-40 -77q-20 -16 -44 -20.5t-47.5 2t-43 20.5 t-31.5 37q-90 162 -112.5 338z" />
<glyph unicode=")" horiz-adv-x="647" d="M52.5 -47.5q-1.5 22.5 6 45t19.5 43t26 35.5q94 106 163 234t97.5 265.5t12 277.5t-87.5 271q-23 39 -18 87.5t40 76.5q41 33 91.5 18.5t74.5 -57.5q90 -162 110.5 -336t-15 -345t-120.5 -329.5t-204 -287.5q-14 -14 -38 -30.5t-48.5 -26t-49 -7.5t-42.5 25 q-16 18 -17.5 40.5z" />
<glyph unicode="*" horiz-adv-x="581" d="M86.5 1427.5q-6.5 18.5 3.5 38.5q10 23 30.5 32t41.5 3l110 -39l23 123q4 23 20.5 38t38.5 15q23 0 35 -15t8 -38l-22 -123l125 39q23 6 39 -3t20 -32q4 -20 -9 -38.5t-36 -24.5l-123 -39l55 -100q10 -16 3 -38t-27 -34t-40 -9t-30 19l-55 101l-90 -101q-16 -16 -38 -20 t-38 10q-16 12 -15 33.5t17 38.5l90 100l-110 37q-20 8 -26.5 26.5z" />
<glyph unicode="+" horiz-adv-x="1048" d="M53 602q8 41 41 68.5t72 27.5h278l50 279q8 41 40.5 68.5t73.5 27.5q39 0 62.5 -27.5t15.5 -68.5l-49 -279h278q41 0 63.5 -27.5t16.5 -68.5q-8 -39 -39.5 -66.5t-72.5 -27.5h-279l-49 -279q-8 -41 -41 -68.5t-72 -27.5q-41 0 -64.5 27.5t-15.5 68.5l50 279h-279 q-41 0 -63.5 27.5t-16.5 66.5z" />
<glyph unicode="," horiz-adv-x="368" d="M-27 -121l41 240q8 45 45 76.5t84 31.5q45 0 71.5 -31.5t18.5 -76.5l-43 -240q-8 -45 -44.5 -76.5t-84.5 -31.5q-45 0 -71.5 31.5t-16.5 76.5z" />
<glyph unicode="-" horiz-adv-x="1050" d="M53 612q8 45 44 75t79 30h735q43 0 69 -30t17 -75q-8 -43 -43.5 -73.5t-79.5 -30.5h-735q-43 0 -68.5 30.5t-17.5 73.5z" />
<glyph unicode="." horiz-adv-x="325" d="M12 111q8 47 46 81.5t83 34.5q47 0 72.5 -34.5t15.5 -81.5q-8 -47 -45 -79t-82 -32q-47 0 -72.5 31.5t-17.5 79.5z" />
<glyph unicode="/" horiz-adv-x="563" d="M53 -74l250 1415q8 43 44 67.5t77 16.5q43 -6 68.5 -41.5t17.5 -78.5l-250 -1416q-8 -41 -43 -66.5t-78 -17.5t-67.5 43t-18.5 78z" />
<glyph unicode="0" horiz-adv-x="1073" d="M59 342l97 541q16 94 59 159.5t107.5 106.5t146.5 60.5t176 19.5t170 -19.5t126 -60.5t69.5 -106.5t3.5 -159.5l-94 -541q-16 -92 -60.5 -157.5t-109 -106.5t-146.5 -59.5t-174 -18.5q-94 0 -170 18.5t-126 59.5t-70.5 106.5t-4.5 157.5zM289 373q-16 -98 27.5 -136 t148.5 -38q104 0 160.5 37.5t72.5 136.5l86 481q16 100 -27 138t-147 38q-102 0 -160.5 -38t-74.5 -138z" />
<glyph unicode="1" horiz-adv-x="569" d="M53.5 1020.5q-4.5 23.5 5.5 46.5q20 53 74 70q53 16 104.5 36.5t102.5 43.5q31 14 64.5 13t60.5 -15.5t42 -40t9 -62.5l-176 -995q-8 -47 -48 -82t-89 -35q-47 0 -76 35t-21 82l154 864q-27 -10 -54.5 -16.5t-53.5 -10.5q-23 -4 -44.5 3.5t-35.5 23.5t-18.5 39.5z" />
<glyph unicode="2" horiz-adv-x="1077" d="M55 56.5q-4 23.5 0 64.5q14 96 38 161.5t52.5 109.5t60.5 75t60 57q25 23 78 50.5t114.5 55t122 54.5t101.5 47q78 39 102.5 101.5t10.5 109.5q-18 55 -69.5 71.5t-112 13.5t-117 -18.5t-82.5 -23.5q-33 -10 -58 -8q-23 2 -42 15.5t-23 47.5q-6 39 7 63.5t30 41.5 q20 18 47 26q162 53 286.5 56.5t208.5 -32.5t123 -102.5t31 -152.5q-10 -86 -33.5 -150.5t-64.5 -114.5t-99.5 -87t-138.5 -68q-78 -31 -130 -54.5t-88 -44t-59.5 -37.5t-45.5 -38q-20 -18 -33 -45t-21 -51q-8 -29 -12 -62h494q8 0 22 -3t28.5 -13t22.5 -29.5t2 -52.5 t-23.5 -50t-35.5 -28q-23 -10 -49 -12h-621q-23 0 -41 4t-28.5 16.5t-14.5 36z" />
<glyph unicode="3" horiz-adv-x="974" d="M57.5 200q14.5 40 56.5 60.5t91 -6.5q37 -18 83 -33.5t92 -20.5t90 5t81 41q23 18 40 55t23.5 78t-4 77t-43.5 52q-25 12 -69.5 14t-83.5 10.5t-59.5 33t1.5 79.5q18 43 51 57.5t71 17.5t78 6t71 26q23 16 40 47.5t25 68.5t4 72t-26 57q-29 27 -69 34t-84 1t-86 -19.5 t-73 -27.5q-49 -25 -80.5 -6.5t-41 53.5t6 74t60.5 57q72 31 144.5 46.5t150.5 19.5q61 2 115.5 -10.5t97.5 -40t71.5 -70.5t37.5 -104q8 -61 -2.5 -121t-39 -111t-76 -90t-110.5 -57q84 -35 117 -102.5t26.5 -144.5t-46 -151.5t-99.5 -124.5q-55 -45 -120.5 -68.5 t-135 -30.5t-139.5 3t-135 33q-74 27 -95.5 74t-7 87z" />
<glyph unicode="4" horiz-adv-x="1026" d="M54 286.5q-5 24.5 1 52.5t23 50l639 785q39 55 102 55h31q45 0 71.5 -32t16.5 -77l-123 -698h80q39 0 62.5 -27.5t15.5 -68.5q-6 -39 -39 -68t-74 -29h-78l-22 -118q-8 -45 -45 -78t-82 -33t-71.5 33t-18.5 78l20 118h-434q-33 0 -51.5 16.5t-23.5 41zM328 422h270 l76 432z" />
<glyph unicode="5" horiz-adv-x="1032" d="M53 187.5q4 27.5 35 58.5q29 29 67 41t72 -8q61 -39 132 -58.5t143 -3.5q59 14 98 58t49 104l15 78q8 41 0.5 87t-48.5 70q-49 29 -109.5 16.5t-100.5 -44.5q-31 -31 -76 -43.5t-86 6.5q-35 16 -50.5 51t-9.5 72l82 461q4 41 37 69.5t74 28.5h524q37 0 60.5 -26.5 t17.5 -63.5q-4 -41 -37 -70t-74 -29h-397l-45 -256q39 18 87 31.5t103 13.5q156 0 233 -94t46 -270l-14 -86q-23 -121 -98.5 -213t-190.5 -133q-59 -23 -126 -30t-133.5 -1t-129 28.5t-113.5 61.5l-12 12q-12 13 -20.5 33.5t-4.5 48z" />
<glyph unicode="6" horiz-adv-x="995" d="M58.5 242.5q-11.5 72.5 2.5 156.5l74 418q14 86 52 161t99.5 130t148.5 88t200 33q92 0 172 -19q47 -12 82 -30q29 -16 46 -42t-1 -67t-43 -56.5t-48.5 -17.5t-40.5 3l-16 4q-31 12 -73 23t-95 11q-115 0 -178 -52t-78 -138l-16 -92q29 23 68 41q35 16 82 28.5t108 12.5 q80 0 144.5 -25t107.5 -71t59.5 -112.5t2.5 -152.5l-19 -102q-16 -92 -61 -162t-109.5 -117t-145.5 -71.5t-167 -24.5q-113 0 -187.5 30.5t-116.5 85t-53.5 127zM281 385q-35 -201 168 -201q90 0 150 51.5t79 149.5l12 74q16 90 -25.5 141t-125.5 51q-106 0 -168 -52 t-78 -144z" />
<glyph unicode="7" horiz-adv-x="942" d="M53 1130q8 41 42 70t75 29h639q41 0 64.5 -29t15.5 -70q-2 -10 -6 -19t-9 -19l-577 -1020q-18 -33 -50 -52.5t-67 -19.5q-33 0 -54.5 15.5t-30.5 38t-8 49t13 49.5q39 66 80 137q35 61 81 140t95 163q113 193 258 440h-479q-41 0 -64.5 29t-17.5 69z" />
<glyph unicode="8" horiz-adv-x="1036" d="M57 332l4 26q16 94 69.5 164t129.5 109q-41 29 -71.5 92t-14.5 149l4 33q14 86 57.5 147.5t104.5 100.5t139 57.5t164 18.5t155.5 -18.5t113.5 -57.5t61.5 -100.5t3.5 -147.5l-6 -33q-16 -86 -67.5 -149.5t-112.5 -91.5q63 -35 93.5 -98.5t14.5 -155.5l-8 -45 q-16 -88 -60.5 -151.5t-108 -103.5t-142 -58.5t-164.5 -18.5t-158 19.5t-122 59.5t-72.5 102.5t-6.5 150.5zM283 348q-8 -45 2 -75.5t33.5 -50t57.5 -29t73 -9.5q78 0 143 38t82 126l6 33q14 88 -36 125t-132 37t-145.5 -36t-79.5 -126zM379 868q-8 -45 2 -75.5t32.5 -50 t55.5 -28.5t72 -9q78 0 140 36.5t79 126.5l4 23q14 78 -20.5 117t-139.5 39q-104 0 -156.5 -40t-66.5 -118z" />
<glyph unicode="9" horiz-adv-x="999" d="M55 137q14 59 63.5 83t104.5 1q57 -23 125 -28t127.5 12.5t103.5 60.5t56 115l16 94q-59 -47 -128.5 -68.5t-138.5 -18.5t-130 28.5t-105.5 73t-63.5 113t-5 149.5l16 102q16 92 62.5 161.5t111 117t145.5 72t167 24.5q113 0 187.5 -31t117.5 -85t55 -127t-2 -155 l-74 -417q-16 -96 -61 -172t-111.5 -130.5t-150.5 -83t-181 -28.5q-29 0 -84 3t-109 16.5t-90 41t-24 76.5zM307 770q-12 -68 9.5 -111t62.5 -61t93 -14t100.5 26.5t85 64.5t47.5 99l12 72q12 70 -9.5 114t-62.5 63t-92 16t-100.5 -26.5t-86 -66.5t-47.5 -102z" />
<glyph unicode=":" horiz-adv-x="448" d="M14 111q8 47 46 81.5t83 34.5q47 0 73 -34.5t15 -81.5q-8 -47 -44.5 -79t-84.5 -32q-45 0 -71.5 31.5t-16.5 79.5zM135 797q8 47 46 81.5t83 34.5q47 0 72.5 -34.5t15.5 -81.5q-8 -47 -45 -79t-84 -32q-45 0 -70.5 32t-17.5 79z" />
<glyph unicode=";" horiz-adv-x="487" d="M12 -121l43 240q8 45 45 76.5t84 31.5q45 0 72 -31.5t16 -76.5l-41 -240q-8 -45 -44.5 -76.5t-84.5 -31.5q-45 0 -71.5 31.5t-18.5 76.5zM176 797q8 45 46 80.5t83 35.5t70.5 -35.5t17.5 -80.5q-8 -47 -45 -80t-84 -33q-45 0 -71.5 33t-16.5 80z" />
<glyph unicode="&#x3c;" horiz-adv-x="780" d="M53 614q4 25 21.5 47.5t44.5 32.5l497 215q35 16 67 4t42 -47q10 -33 -9.5 -66.5t-53.5 -49.5l-316 -136l268 -137q29 -16 36 -49t-15 -66q-20 -35 -57 -47t-66 4l-422 216q-23 12 -32 33.5t-5 45.5z" />
<glyph unicode="=" horiz-adv-x="1114" d="M53 422q6 41 39 68.5t74 27.5h749q41 0 63.5 -27.5t14.5 -68.5q-6 -41 -38.5 -68.5t-73.5 -27.5h-750q-39 0 -62.5 27.5t-15.5 68.5zM121 805q8 41 40 68.5t72 27.5h750q41 0 63.5 -27.5t14.5 -68.5q-6 -41 -39 -68.5t-74 -27.5h-747q-41 0 -64.5 27.5t-15.5 68.5z" />
<glyph unicode="&#x3e;" horiz-adv-x="780" d="M55 362q-10 33 8.5 66t53.5 49l317 137l-268 136q-31 16 -38 50t15 66q23 35 59 47.5t66 -4.5l422 -215q23 -10 32 -32.5t3 -47.5q-4 -25 -20.5 -47t-42.5 -32l-498 -216q-35 -16 -66.5 -3.5t-42.5 46.5z" />
<glyph unicode="?" horiz-adv-x="720" d="M76 111q10 47 47 82.5t84 35.5q45 0 70.5 -35.5t17.5 -82.5t-46 -79t-83 -32t-71.5 31.5t-18.5 79.5zM103.5 1091.5q11.5 38.5 33.5 61.5q55 51 128 63.5t145 12.5q96 0 174.5 -42.5t101.5 -146.5q14 -63 -3 -129.5t-58 -124.5q-33 -45 -78 -83.5t-88 -83t-79 -100.5 t-50 -136q-6 -37 -41 -67.5t-80 -26.5q-35 4 -55.5 30.5t-16.5 63.5q14 96 37 146.5t51 86.5q27 33 58.5 59.5t63.5 53.5t62.5 56.5t55.5 66.5q41 61 31.5 108.5t-48 72t-95 24.5t-107.5 -33q-25 -12 -47 -16q-20 -4 -43 -1t-41 23q-23 23 -11.5 61.5z" />
<glyph unicode="@" horiz-adv-x="1327" d="M52 406.5q-1 52.5 5 93.5l41 233q4 27 19.5 74t45.5 102.5t79 112.5t123.5 103t177 75t241.5 29q123 0 209 -24.5t141.5 -64.5t85 -90.5t43 -100.5t12.5 -98t-7 -81l-39 -215q-10 -55 -29.5 -104.5t-53.5 -87t-85 -59t-121 -21.5q-35 0 -66.5 10t-53 31.5t-31 51.5 t-3.5 70l27 150h-289q-2 -8 -6 -38t-10 -63.5t-11 -63.5t-8 -36q-10 -25 -29.5 -42t-43.5 -19q-27 0 -41.5 19.5t-9.5 47.5l67 379q23 104 107 159.5t200 55.5q51 0 97.5 -11t80 -36.5t49 -66.5t5.5 -103l-56 -305q-4 -33 9.5 -53.5t48.5 -20.5q33 0 60.5 25t37.5 78l45 254 q8 43 1 100t-44 107.5t-111.5 85t-201.5 34.5q-129 0 -219 -33.5t-149.5 -89t-91.5 -124t-44 -138.5l-31 -174q-14 -78 0.5 -146.5t56.5 -119.5t112.5 -81t168.5 -30q86 0 164 17.5t129 34.5q23 8 50.5 3t37.5 -36q12 -33 -4 -59.5t-49 -47.5q-20 -12 -67.5 -22 t-100.5 -17.5t-104.5 -12.5t-79.5 -5q-117 0 -200 25.5t-138.5 67.5t-87 95.5t-46 108.5t-15.5 107.5zM545 707h286l13 69q10 59 -27 88t-96 29q-66 0 -111 -27.5t-55 -93.5z" />
<glyph unicode="A" horiz-adv-x="1058" d="M-18 113l127 729q33 176 163.5 281.5t370.5 105.5q236 1 331 -105q72 -80 71 -201q0 -39 -7 -83l-129 -727q-8 -47 -46 -80t-85 -33q-46 0 -74 33q-20 24 -21 56q0 12 3 24l66 372h-480l-67 -372q-8 -47 -46 -80t-85 -33t-75 33q-20 24 -20 55q0 12 3 25zM303 670h481 l27 157q5 33 5 61q0 14 -1 28q-4 40 -26.5 69t-65.5 44t-113 15q-72 0 -121 -15t-81.5 -44t-50 -68.5t-25.5 -89.5z" />
<glyph unicode="B" horiz-adv-x="1110" d="M51 385l201 1141q8 47 47 79.5t86 32.5t73 -32q20 -25 21 -59q0 -10 -2 -21l-59 -336q103 39 248 39q236 1 331 -105q71 -78 70 -197q0 -41 -8 -87l-80 -455q-31 -174 -163 -279.5t-370 -105.5t-333 104q-71 77 -71 194q0 41 9 87zM274 312q2 -40 25 -68.5t67 -44 t115 -15.5q139 0 199.5 59.5t77.5 155.5l76 428q5 33 5 61q0 14 -1 28q-4 40 -27 69t-66 44t-112 15q-72 0 -121 -15t-82 -44t-50.5 -68.5t-25.5 -89.5l-75 -428q-6 -36 -7 -68q1 -9 2 -19z" />
<glyph unicode="C" horiz-adv-x="993" d="M42 260q-1 14 -1 31q0 71 18 176l68 383q8 43 29.5 106.5t74 122t146.5 101.5t246 49q15 1 31 1q31 0 65 -3q43 -4 94 -13.5t105 -29.5q51 -18 62 -56q5 -16 5 -32q0 -21 -9 -41q-15 -35 -52 -55q-21 -12 -43 -12q-18 0 -37 7q-72 25 -119 34t-94 11q-23 0 -64 -4 t-84 -26.5t-80.5 -68.5t-52.5 -132q-16 -86 -29.5 -163t-23.5 -136q-12 -68 -23 -127q-3 -19 -4 -36q0 -33 13 -60q16 -37 61 -67t150 -30q16 0 58 3.5t69 9.5q14 2 36.5 9t46 10t46 2t34.5 -13t21.5 -34.5t6.5 -47.5t-23.5 -49.5t-69.5 -40.5q-49 -18 -119 -27.5 t-142 -10.5h-17q-63 0 -121 7q-66 8 -107 25q-41 16 -79 37.5t-62.5 66.5t-29.5 123z" />
<glyph unicode="D" horiz-adv-x="1124" d="M49 385l80 455q31 178 163 283.5t370 105.5q143 0 233 -39l59 336q8 47 46 79.5t85 32.5t75 -32q22 -25 22 -60q0 -10 -2 -20l-203 -1141q-31 -180 -161 -282.5t-370 -102.5q-238 0 -333 106q-72 80 -72 198q0 38 8 81zM272 312q4 -40 27 -68.5t66 -44t112 -15.5 q72 0 121 15.5t81 44t50.5 68.5t26.5 87l75 428q5 33 5 61q0 14 -1 28q-4 40 -25.5 69t-65.5 44t-115 15q-70 0 -118 -15t-81 -44t-51.5 -68.5t-26.5 -89.5l-76 -428q-5 -31 -6 -60q1 -14 2 -27z" />
<glyph unicode="E" horiz-adv-x="1050" d="M20 385l80 457q33 176 164 281.5t371 105.5q236 1 331 -105q72 -80 71 -201q0 -39 -7 -83l-47 -262q-6 -39 -38 -66t-71 -27h-610l-16 -86q-5 -31 -5 -60q0 -14 1 -27q4 -40 25.5 -68.5t65.5 -44t116 -15.5h370q37 0 61 -26q19 -20 18 -50q0 -8 -1 -16q-8 -39 -40 -65.5 t-68 -26.5h-375q-238 0 -332 104q-71 78 -71 199q0 39 7 82zM295 670h481l27 157q5 33 5 61q0 14 -1 28q-4 40 -26.5 69t-65.5 44t-113 15q-72 0 -121 -15t-81.5 -44t-50 -68.5t-25.5 -89.5z" />
<glyph unicode="F" horiz-adv-x="925" d="M-10 113l129 729q31 178 161 281.5t365 105.5h275q39 -1 60 -27q16 -21 16 -48q0 -8 -1 -17q-6 -39 -37.5 -66t-70.5 -27h-273q-70 0 -117.5 -16t-79.5 -45t-49.5 -69t-25.5 -87l-29 -157h334q45 0 63 -29q13 -22 13 -46q0 -7 -2 -17q-6 -34 -35 -63.5t-72 -29.5h-333 l-66 -372q-8 -45 -46 -79t-87 -34q-48 0 -74 33q-20 25 -20 59q0 10 2 21z" />
<glyph unicode="G" horiz-adv-x="1107" d="M49 385l80 457q33 176 164 281.5t371 105.5q236 0 331 -105q72 -80 72 -201q0 -39 -8 -83l-154 -865q-31 -180 -161 -282.5t-369 -102.5h-2q-47 0 -63 29q-12 20 -12 43q0 10 2 20q7 35 34.5 64t71.5 29h2q70 0 118.5 15t81.5 44t50.5 69t25.5 87l8 49 q-53 -18 -114.5 -28.5t-133.5 -10.5q-238 0 -332 104q-71 77 -71 197q0 40 8 84zM272 312q4 -40 25.5 -68.5t65.5 -44t116 -15.5q139 0 199.5 59.5t77.5 155.5l75 428q5 33 5 61q0 15 -1 28q-4 40 -26.5 69t-65.5 44t-112 15q-72 0 -121 -15t-82 -44t-50.5 -68.5 t-25.5 -89.5l-76 -428q-5 -31 -5 -60q0 -14 1 -27z" />
<glyph unicode="H" horiz-adv-x="1122" d="M4 113q2 16 23 127q8 47 21 118.5t31.5 178t43 249t59.5 330.5q8 47 46 80t85 33t75 -33q21 -24 21 -56q0 -11 -3 -24l-78 -446h479l80 446q8 47 46 80t85 33q46 0 74 -33q20 -24 21 -56q0 -12 -3 -24q-33 -188 -58.5 -330.5t-44 -249t-30.5 -178t-21 -118.5 q-20 -111 -22 -127q-10 -47 -48 -80t-85 -33t-74 33q-20 25 -20 57q0 11 2 23l8 47q6 35 19.5 109.5t37.5 215.5h-479q-25 -141 -38 -215.5t-19 -109.5l-9 -47q-8 -47 -47 -80t-86 -33q-48 0 -74 33q-20 25 -20 59q0 10 2 21z" />
<glyph unicode="I" horiz-adv-x="407" d="M-6 115l176 1001q8 47 46 80t85 33t75 -33q21 -26 21 -60q0 -10 -2 -20q-35 -188 -59.5 -330.5t-43 -249t-31.5 -178t-21 -118.5q-20 -111 -23 -127q-8 -47 -46 -80t-85 -33q-48 0 -74 34q-20 26 -20 60q0 10 2 21z" />
<glyph unicode="J" horiz-adv-x="561" d="M-214 -318q7 35 34.5 64t70.5 29q51 0 82 11t49.5 36.5t29.5 66.5t24 101l198 1126q8 47 46.5 80t85.5 33t74 -33q22 -26 22 -60q0 -9 -2 -20l-203 -1141q-16 -90 -41 -160.5t-74 -120.5t-127 -77t-196 -27q-47 0 -63 29q-12 20 -12 43q0 10 2 20z" />
<glyph unicode="K" horiz-adv-x="1153" d="M4 115l248 1411q10 47 48 79.5t85 32.5t73 -32q20 -25 21 -59q0 -10 -2 -21l-149 -842l604 512q38 33 77 33q5 0 10 -1q43 -5 69 -35q24 -28 24 -68v-6q-2 -44 -49 -83l-432 -366q186 0 272 -112q59 -77 60 -212q0 -61 -13 -135l-18 -98q-8 -47 -46 -80t-85 -33t-75 33 q-21 25 -21 58q0 11 2 22l18 92q9 49 9 89q0 78 -32 122q-48 68 -145 69h-264l-64 -370q-8 -47 -47 -81t-86 -34q-48 0 -74 34q-20 26 -20 60q0 10 2 21z" />
<glyph unicode="L" horiz-adv-x="845" d="M0 113q4 14 25 125q8 47 21 119.5t31.5 178t43 249t57.5 331.5q8 47 46 80t85 33t74 -33q20 -25 20 -57q0 -11 -2 -23l-163 -932h479q47 0 65 -28q12 -20 12 -44q0 -10 -2 -20q-8 -35 -36.5 -63.5t-71.5 -28.5h-592q-48 0 -74 33q-20 25 -20 59q0 10 2 21z" />
<glyph unicode="M" horiz-adv-x="1802" d="M-6 113l129 729q31 176 163 281.5t371 105.5q231 0 332 -107q135 107 371 107q238 1 333 -105q71 -78 70 -197q0 -41 -8 -87l-127 -727q-10 -47 -48 -80t-85 -33t-73 33q-20 25 -21 59q0 10 2 21l127 714q5 33 5 61q0 14 -1 28q-4 40 -26.5 69t-65.5 44t-113 15 q-72 0 -122 -15t-81.5 -44t-50 -68.5t-26.5 -89.5l-125 -714q-8 -47 -47 -80t-86 -33t-74 33q-21 25 -21 59q0 10 2 21l127 714q5 33 5 61q0 14 -1 28q-4 40 -26.5 69t-65.5 44t-112 15q-72 0 -121 -15t-82 -44t-50.5 -68.5t-25.5 -89.5l-127 -714q-8 -47 -46 -80t-85 -33 q-46 0 -74 33q-21 26 -22 60q0 9 2 20z" />
<glyph unicode="N" horiz-adv-x="1083" d="M-16 113l129 729q31 176 162.5 281.5t369.5 105.5q238 1 333 -105q71 -78 70 -197q0 -41 -8 -87l-127 -727q-10 -47 -48 -80t-85 -33q-48 0 -74 33q-20 25 -20 59q0 10 2 21l127 714q5 33 5 61q0 14 -1 28q-4 40 -26.5 69t-66.5 44t-114 15q-72 0 -121 -15t-81.5 -44 t-50 -68.5t-25.5 -89.5l-125 -714q-10 -47 -48 -80t-85 -33t-74 33q-20 25 -20 57q0 11 2 23z" />
<glyph unicode="O" horiz-adv-x="1083" d="M25 385l79 457q33 176 164 281.5t371 105.5q236 1 331 -105q71 -78 70 -197q0 -41 -8 -87l-80 -453v-2q-31 -174 -163 -279.5t-369 -105.5q-238 0 -333 104q-71 77 -71 194q0 41 9 87zM248 312q4 -40 25.5 -68.5t65.5 -44t116 -15.5q139 0 199.5 59.5t76.5 155.5l76 428 q5 33 5 61q0 14 -1 28q-4 40 -26.5 69t-65.5 44t-113 15q-72 0 -121 -15t-81.5 -44t-50 -68.5t-25.5 -89.5l-76 -428q-5 -31 -6 -60q1 -14 2 -27z" />
<glyph unicode="P" horiz-adv-x="1122" d="M-57 -297l200 1139q33 176 164 281.5t371 105.5q236 1 331 -105q72 -80 71 -201q0 -39 -7 -83l-82 -455q-31 -174 -163 -279.5t-369 -105.5q-137 0 -232 39l-59 -336q-8 -47 -47 -80t-86 -33t-74 33q-20 25 -20 57q0 11 2 23zM287 312q4 -40 25.5 -68.5t65.5 -44 t116 -15.5q139 0 199.5 59.5t76.5 155.5l76 428q5 33 5 61q0 14 -1 28q-4 40 -26.5 69t-65.5 44t-113 15q-72 0 -121 -15t-81.5 -44t-50 -68.5t-25.5 -89.5l-76 -428q-5 -31 -5 -60q0 -14 1 -27z" />
<glyph unicode="Q" horiz-adv-x="1110" d="M49 385l82 455q31 180 162 284.5t369 104.5q240 0 334 -105q71 -80 71 -199q0 -39 -8 -83l-201 -1139q-8 -47 -46 -80t-85 -33t-73 33q-21 25 -21 59q0 10 2 21l57 336q-106 -39 -246 -39q-119 0 -200.5 27.5t-130.5 78t-65 122.5q-9 36 -9 76q0 39 8 81zM272 312 q4 -40 27 -68.5t67 -44t113 -15.5q72 0 121 15.5t81 44t50.5 68.5t26.5 87l73 428q6 37 6 69q0 10 -1 20q-2 40 -25 69t-66 44t-114 15q-70 0 -119 -15t-82 -44t-51.5 -68.5t-26.5 -89.5l-76 -428q-5 -31 -5 -60q0 -14 1 -27z" />
<glyph unicode="R" horiz-adv-x="964" d="M-20 113l129 729q14 86 42.5 157.5t85 121.5t147.5 79t234 29q43 0 93 -6q41 -4 90 -13.5t96 -25.5q49 -20 65 -57q11 -24 11 -47q0 -12 -3 -24q-9 -34 -42 -54q-18 -11 -42 -10q-19 0 -42 7q-72 23 -124 34t-116 11q-70 0 -118 -16t-79.5 -45t-49 -69t-25.5 -87 l-127 -714q-8 -45 -46 -79t-85 -34t-75 33q-21 25 -21 58q0 11 2 22z" />
<glyph unicode="S" horiz-adv-x="964" d="M8 92q6 35 32 63.5t66 28.5h390q35 0 68.5 14.5t61 40t46 60.5t24.5 74q3 18 3 34q1 56 -31 98q-40 54 -113 54h-166q-66 2 -116 30.5t-83.5 75t-47.5 105.5q-9 35 -9 72q0 26 4 53q12 70 46 130t82 105.5t107.5 72t123.5 26.5h458q42 0 58 -29q11 -21 12 -45 q0 -9 -2 -19q-6 -34 -31.5 -63t-66.5 -29h-420q-57 0 -104.5 -44t-57.5 -105q-2 -15 -2 -29q0 -44 24 -78q32 -44 91 -45h166q74 0 130 -31.5t93 -83.5q37 -54 52 -120q9 -40 9 -80q0 -27 -4 -55q-12 -78 -50 -145.5t-92 -119t-121 -80t-136 -28.5h-424q-44 0 -60 28 q-12 21 -12 46q0 9 2 18z" />
<glyph unicode="T" horiz-adv-x="968" d="M51 1137q6 39 38 65.5t71 26.5h743q39 -1 61 -27q17 -20 17 -45q0 -9 -2 -20q-6 -39 -38 -66t-71 -27h-260q-31 -174 -54.5 -307t-40.5 -231t-28.5 -166t-19.5 -111l-21 -116q-8 -47 -46 -80t-85 -33t-75 33q-21 26 -21 60q0 10 2 20l21 116q8 43 20 111t29.5 166t41 231 t54.5 307h-260q-39 0 -61 27q-17 20 -17 46q0 10 2 20z" />
<glyph unicode="U" horiz-adv-x="1132" d="M43 385l129 731q10 47 48 80t85 33t74 -33q20 -25 20 -57q0 -11 -2 -23q-12 -72 -21 -123t-17.5 -95t-15.5 -87t-17.5 -98.5t-23.5 -131t-32 -182.5q-5 -31 -6 -60q0 -14 2 -27q4 -40 25.5 -68.5t65.5 -44t116 -15.5q139 0 200.5 59.5t78.5 155.5q18 106 31.5 182 t22.5 131.5t17 98.5t15.5 87t16.5 95t22 123q10 47 48 80t85 33q48 0 74 -33q20 -25 20 -59q0 -10 -2 -21l-129 -731q-31 -174 -163 -279.5t-370 -105.5t-333 104q-72 78 -72 198q0 39 8 83z" />
<glyph unicode="V" horiz-adv-x="1028" d="M92 1108q0 25 10 47q8 18 28 37.5t54 30.5q21 6 37 6q11 0 19 -3q22 -7 34 -22q14 -16 21 -41l108 -917l420 913q12 25 35 43q18 16 45 24q11 4 25 4q19 0 43 -7q31 -10 43 -29.5t16 -38.5q2 -9 2 -19q0 -14 -4 -28l-493 -997q-18 -33 -43 -56q-23 -20 -53.5 -37.5 t-73.5 -17.5t-68 16.5t-39 38.5q-16 23 -22 56z" />
<glyph unicode="W" horiz-adv-x="1787" d="M33 389l127 727q10 47 48 80t85 33t73 -33q20 -25 21 -59q0 -10 -2 -21l-127 -715q-5 -33 -6 -61q0 -14 2 -28q4 -40 26.5 -68.5t65.5 -44t113 -15.5q72 0 121 15.5t81.5 44t50 68.5t25.5 89l127 715q8 47 47 80t86 33t74 -33q21 -25 21 -59q0 -10 -2 -21l-127 -715 q-5 -33 -5 -61q0 -14 1 -28q4 -40 26.5 -68.5t65.5 -44t112 -15.5q72 0 121 15.5t81 44t50.5 68.5t26.5 89l127 715q8 47 46 80t85 33q46 0 74 -33q21 -26 22 -60q0 -10 -2 -20l-129 -727q-33 -178 -164 -283.5t-371 -105.5q-119 0 -201.5 27.5t-129.5 78.5 q-66 -51 -158 -78.5t-215 -27.5q-238 0 -332 106q-70 78 -70 195q0 42 9 88z" />
<glyph unicode="X" horiz-adv-x="1048" d="M-5 88q-1 5 -1 9q0 41 39 89l358 430l-207 433q-12 24 -12 47q0 22 11 44q22 44 60 68q34 22 72 22h10q44 -3 66 -52l170 -357l289 357q37 45 83 49q7 1 14 1q37 0 63 -20q32 -22 40 -66q1 -7 1 -13q0 -38 -37 -82l-355 -431l213 -452q10 -20 10 -40q0 -22 -12 -44 q-22 -40 -62 -62q-31 -17 -66 -17q-10 0 -19 1q-45 6 -70 59l-164 351l-286 -351q-43 -51 -91 -57q-10 -1 -20 -1q-34 -1 -60 17q-32 22 -37 68z" />
<glyph unicode="Y" horiz-adv-x="974" d="M109 1096q-1 11 -1 21q0 19 4 39q7 30 44 52q33 19 59 19q2 0 3 -1q28 -1 44 -14q20 -14 33 -38l194 -379q78 94 142 172q27 33 53.5 65.5t48 59t36.5 45t19 24.5q12 14 32 31.5t44 27.5q23 8 47 8h5q28 -1 57 -24t34 -48q2 -10 2 -19q0 -15 -5 -27q-8 -25 -31 -47 l-404 -473l-82 -459q-6 -37 -22 -65q-14 -25 -42 -45.5t-73 -20.5t-64.5 18.5t-25.5 40.5q-8 27 0 62l86 469l-213 436q-18 35 -24 70z" />
<glyph unicode="Z" horiz-adv-x="1034" d="M4 98q4 24 21 45l716 901h-481q-48 0 -64 29q-10 19 -11 40q-1 11 3 23q8 34 36 63.5t69 29.5h700q27 0 44.5 -15.5t23.5 -37.5q3 -12 3 -26q0 -12 -2 -22q-5 -24 -22 -45l-716 -899h483q45 0 63 -28q13 -21 12 -46q0 -9 -2 -18q-6 -35 -34.5 -63.5t-71.5 -28.5h-698 q-29 0 -46 16q-18 14 -24 36q-4 13 -4 27q0 9 2 19z" />
<glyph unicode="[" horiz-adv-x="806" d="M53 614q6 33 23.5 50.5t39 27.5t43 16.5t38.5 18.5q14 10 24 30.5t17 41.5q8 23 12 49l86 485q8 43 44 74t79 31h209q43 0 68.5 -31t17.5 -74t-44 -73.5t-79 -30.5h-105q-8 -45 -18 -103q-10 -49 -21.5 -119.5t-27.5 -158.5t-49 -134t-66 -69q-39 -25 -82 -31 q41 -6 72 -30q25 -23 42 -70t1 -133q-16 -88 -27.5 -158.5t-21.5 -120.5q-10 -57 -19 -102h105q43 0 68.5 -30.5t17.5 -73.5t-44 -74t-79 -31h-209q-43 0 -68.5 31t-17.5 74l86 485q6 27 6 49q0 20 -4 39.5t-14 32.5q-10 12 -30 18t-38 16.5t-29.5 28t-5.5 49.5z" />
<glyph unicode="\" horiz-adv-x="563" d="M53 1305q-8 43 17.5 78.5t68.5 41.5q41 8 77 -16.5t44 -67.5l250 -1415q6 -43 -18.5 -77.5t-67.5 -43.5q-43 -8 -78 17.5t-43 66.5z" />
<glyph unicode="]" horiz-adv-x="806" d="M53 -104q8 43 44 73.5t79 30.5h105q8 45 18 102q10 49 21.5 120t27.5 159q16 86 47 133t66 70q37 25 84 30q-45 6 -74 31q-27 23 -42 69t1 134t27.5 158.5t21.5 119.5q10 57 19 103h-105q-43 0 -68.5 30.5t-17.5 73.5t44 74t79 31h209q43 0 68.5 -31t17.5 -74l-86 -485 q-6 -27 -6 -49q0 -20 3 -41t15 -31q10 -12 29.5 -18.5t38 -16.5t30 -27.5t5.5 -50.5t-23.5 -50t-39 -27.5t-44 -16.5t-37.5 -18q-16 -12 -26.5 -31.5t-16.5 -40.5q-8 -23 -10 -49l-86 -485q-8 -43 -44 -74t-79 -31h-209q-43 0 -68.5 31t-17.5 74z" />
<glyph unicode="_" horiz-adv-x="1050" d="M-8 104q8 43 44 74t79 31h735q43 0 68.5 -31t17.5 -74t-44 -73.5t-79 -30.5h-735q-43 0 -68.5 30.5t-17.5 73.5z" />
<glyph unicode="`" horiz-adv-x="401" d="M52.5 1563.5q-2.5 31.5 13.5 54.5q18 23 49.5 23.5t56.5 -21.5l143 -123q29 -23 34 -55.5t-13 -55.5t-50 -21.5t-61 24.5l-143 120q-27 23 -29.5 54.5z" />
<glyph unicode="a" horiz-adv-x="1058" d="M-18 113l127 729q33 176 163.5 281.5t370.5 105.5q236 1 331 -105q72 -80 71 -201q0 -39 -7 -83l-129 -727q-8 -47 -46 -80t-85 -33q-46 0 -74 33q-20 24 -21 56q0 12 3 24l66 372h-480l-67 -372q-8 -47 -46 -80t-85 -33t-75 33q-20 24 -20 55q0 12 3 25zM303 670h481 l27 157q5 33 5 61q0 14 -1 28q-4 40 -26.5 69t-65.5 44t-113 15q-72 0 -121 -15t-81.5 -44t-50 -68.5t-25.5 -89.5z" />
<glyph unicode="b" horiz-adv-x="1110" d="M51 385l201 1141q8 47 47 79.5t86 32.5t73 -32q20 -25 21 -59q0 -10 -2 -21l-59 -336q103 39 248 39q236 1 331 -105q71 -78 70 -197q0 -41 -8 -87l-80 -455q-31 -174 -163 -279.5t-370 -105.5t-333 104q-71 77 -71 194q0 41 9 87zM274 312q2 -40 25 -68.5t67 -44 t115 -15.5q139 0 199.5 59.5t77.5 155.5l76 428q5 33 5 61q0 14 -1 28q-4 40 -27 69t-66 44t-112 15q-72 0 -121 -15t-82 -44t-50.5 -68.5t-25.5 -89.5l-75 -428q-6 -36 -7 -68q1 -9 2 -19z" />
<glyph unicode="c" horiz-adv-x="993" d="M42 260q-1 14 -1 31q0 71 18 176l68 383q8 43 29.5 106.5t74 122t146.5 101.5t246 49q15 1 31 1q31 0 65 -3q43 -4 94 -13.5t105 -29.5q51 -18 62 -56q5 -16 5 -32q0 -21 -9 -41q-15 -35 -52 -55q-21 -12 -43 -12q-18 0 -37 7q-72 25 -119 34t-94 11q-23 0 -64 -4 t-84 -26.5t-80.5 -68.5t-52.5 -132q-16 -86 -29.5 -163t-23.5 -136q-12 -68 -23 -127q-3 -19 -4 -36q0 -33 13 -60q16 -37 61 -67t150 -30q16 0 58 3.5t69 9.5q14 2 36.5 9t46 10t46 2t34.5 -13t21.5 -34.5t6.5 -47.5t-23.5 -49.5t-69.5 -40.5q-49 -18 -119 -27.5 t-142 -10.5h-17q-63 0 -121 7q-66 8 -107 25q-41 16 -79 37.5t-62.5 66.5t-29.5 123z" />
<glyph unicode="d" horiz-adv-x="1120" d="M49 385l80 455q31 178 163 283.5t370 105.5q143 0 233 -39l59 336q8 47 46 79.5t85 32.5t75 -32q22 -25 22 -60q0 -10 -2 -20l-203 -1141q-31 -180 -161 -282.5t-370 -102.5q-238 0 -333 106q-72 80 -72 198q0 38 8 81zM272 312q4 -40 27 -68.5t66 -44t112 -15.5 q72 0 121 15.5t81 44t50.5 68.5t26.5 87l75 428q5 33 5 61q0 14 -1 28q-4 40 -25.5 69t-65.5 44t-115 15q-70 0 -118 -15t-81 -44t-51.5 -68.5t-26.5 -89.5l-76 -428q-5 -31 -6 -60q1 -14 2 -27z" />
<glyph unicode="e" horiz-adv-x="1050" d="M20 385l80 457q33 176 164 281.5t371 105.5q236 1 331 -105q72 -80 71 -201q0 -39 -7 -83l-47 -262q-6 -39 -38 -66t-71 -27h-610l-16 -86q-5 -31 -5 -60q0 -14 1 -27q4 -40 25.5 -68.5t65.5 -44t116 -15.5h370q37 0 61 -26q19 -20 18 -50q0 -8 -1 -16q-8 -39 -40 -65.5 t-68 -26.5h-375q-238 0 -332 104q-71 78 -71 199q0 39 7 82zM295 670h481l27 157q5 33 5 61q0 14 -1 28q-4 40 -26.5 69t-65.5 44t-113 15q-72 0 -121 -15t-81.5 -44t-50 -68.5t-25.5 -89.5z" />
<glyph unicode="f" horiz-adv-x="925" d="M-10 113l129 729q31 178 161 281.5t365 105.5h275q39 0 60 -27q16 -20 16 -48q0 -8 -1 -17q-6 -39 -37.5 -66t-70.5 -27h-273q-70 0 -117.5 -16t-79.5 -45t-49.5 -69t-25.5 -87l-29 -157h334q45 0 63 -29q13 -22 13 -46q0 -9 -2 -17q-6 -35 -35 -64t-72 -29h-333 l-66 -372q-8 -45 -46 -79t-87 -34q-47 0 -74 33q-20 25 -20 59q0 10 2 21z" />
<glyph unicode="g" horiz-adv-x="1107" d="M49 385l80 457q33 176 164 281.5t371 105.5q236 0 331 -105q72 -80 72 -201q0 -39 -8 -83l-154 -865q-31 -180 -161 -282.5t-369 -102.5h-2q-47 0 -63 29q-12 20 -12 43q0 10 2 20q7 35 34.5 64t71.5 29h2q70 0 118.5 15t81.5 44t50.5 69t25.5 87l8 49 q-53 -18 -114.5 -28.5t-133.5 -10.5q-238 0 -332 104q-71 77 -71 197q0 40 8 84zM272 312q4 -40 25.5 -68.5t65.5 -44t116 -15.5q139 0 199.5 59.5t77.5 155.5l75 428q5 33 5 61q0 15 -1 28q-4 40 -26.5 69t-65.5 44t-112 15q-72 0 -121 -15t-82 -44t-50.5 -68.5 t-25.5 -89.5l-76 -428q-5 -31 -5 -60q0 -14 1 -27z" />
<glyph unicode="h" horiz-adv-x="1122" d="M4 113q2 16 23 127q8 47 21 118.5t31.5 178t43 249t59.5 330.5q8 47 46 80t85 33t75 -33q21 -24 21 -56q0 -11 -3 -24l-78 -446h479l80 446q8 47 46 80t85 33q46 0 74 -33q20 -24 21 -56q0 -12 -3 -24q-33 -188 -58.5 -330.5t-44 -249t-30.5 -178t-21 -118.5 q-20 -111 -22 -127q-10 -47 -48 -80t-85 -33t-74 33q-20 25 -20 57q0 11 2 23l8 47q6 35 19.5 109.5t37.5 215.5h-479q-25 -141 -38 -215.5t-19 -109.5l-9 -47q-8 -47 -47 -80t-86 -33q-48 0 -74 33q-20 25 -20 59q0 10 2 21z" />
<glyph unicode="i" horiz-adv-x="397" d="M-10 115l176 1001q8 47 46 80t85 33t75 -33q21 -26 21 -60q0 -10 -2 -20q-35 -188 -59.5 -330.5t-43 -249t-31.5 -178t-21 -118.5q-20 -111 -23 -127q-8 -47 -46 -80t-85 -33q-48 0 -74 34q-20 26 -20 60q0 10 2 21z" />
<glyph unicode="j" horiz-adv-x="561" d="M-214 -318q7 35 34.5 64t70.5 29q51 0 82 11t49.5 36.5t29.5 66.5t24 101l198 1126q8 47 46.5 80t85.5 33t74 -33q22 -26 22 -60q0 -9 -2 -20l-203 -1141q-16 -90 -41 -160.5t-74 -120.5t-127 -77t-196 -27q-47 0 -63 29q-12 20 -12 43q0 10 2 20z" />
<glyph unicode="k" horiz-adv-x="1153" d="M4 115l248 1411q10 47 48 79.5t85 32.5t73 -32q20 -25 21 -59q0 -10 -2 -21l-149 -842l604 512q38 33 77 33q5 0 10 -1q43 -5 69 -35q24 -28 24 -68v-6q-2 -44 -49 -83l-432 -366q186 0 272 -112q59 -77 60 -212q0 -61 -13 -135l-18 -98q-8 -47 -46 -80t-85 -33t-75 33 q-21 25 -21 58q0 11 2 22l18 92q9 49 9 89q0 78 -32 122q-48 68 -145 69h-264l-64 -370q-8 -47 -47 -81t-86 -34q-48 0 -74 34q-20 26 -20 60q0 10 2 21z" />
<glyph unicode="l" horiz-adv-x="845" d="M0 113q4 14 25 125q8 47 21 119.5t31.5 178t43 249t57.5 331.5q8 47 46 80t85 33t74 -33q20 -25 20 -57q0 -11 -2 -23l-163 -932h479q47 0 65 -28q12 -20 12 -44q0 -10 -2 -20q-8 -35 -36.5 -63.5t-71.5 -28.5h-592q-48 0 -74 33q-20 25 -20 59q0 10 2 21z" />
<glyph unicode="m" horiz-adv-x="1802" d="M-6 113l129 729q31 176 163 281.5t371 105.5q231 0 332 -107q135 107 371 107q238 1 333 -105q71 -78 70 -197q0 -41 -8 -87l-127 -727q-10 -47 -48 -80t-85 -33t-73 33q-20 25 -21 59q0 10 2 21l127 714q5 33 5 61q0 14 -1 28q-4 40 -26.5 69t-65.5 44t-113 15 q-72 0 -122 -15t-81.5 -44t-50 -68.5t-26.5 -89.5l-125 -714q-8 -47 -47 -80t-86 -33t-74 33q-21 25 -21 59q0 10 2 21l127 714q5 33 5 61q0 14 -1 28q-4 40 -26.5 69t-65.5 44t-112 15q-72 0 -121 -15t-82 -44t-50.5 -68.5t-25.5 -89.5l-127 -714q-8 -47 -46 -80t-85 -33 q-46 0 -74 33q-21 26 -22 60q0 9 2 20z" />
<glyph unicode="n" horiz-adv-x="1083" d="M-16 113l129 729q31 176 162.5 281.5t369.5 105.5q238 1 333 -105q71 -78 70 -197q0 -41 -8 -87l-127 -727q-10 -47 -48 -80t-85 -33q-48 0 -74 33q-20 25 -20 59q0 10 2 21l127 714q5 33 5 61q0 14 -1 28q-4 40 -26.5 69t-66.5 44t-114 15q-72 0 -121 -15t-81.5 -44 t-50 -68.5t-25.5 -89.5l-125 -714q-10 -47 -48 -80t-85 -33t-74 33q-20 25 -20 57q0 11 2 23z" />
<glyph unicode="o" horiz-adv-x="1083" d="M25 385l79 457q33 176 164 281.5t371 105.5q236 1 331 -105q71 -78 70 -197q0 -41 -8 -87l-80 -453v-2q-31 -174 -163 -279.5t-369 -105.5q-238 0 -333 104q-71 77 -71 194q0 41 9 87zM248 312q4 -40 25.5 -68.5t65.5 -44t116 -15.5q139 0 199.5 59.5t76.5 155.5l76 428 q5 33 5 61q0 14 -1 28q-4 40 -26.5 69t-65.5 44t-113 15q-72 0 -121 -15t-81.5 -44t-50 -68.5t-25.5 -89.5l-76 -428q-5 -31 -6 -60q1 -14 2 -27z" />
<glyph unicode="p" horiz-adv-x="1122" d="M-57 -297l200 1139q33 176 164 281.5t371 105.5q236 0 331 -105q72 -80 72 -201q0 -39 -8 -83l-82 -455q-31 -174 -163 -279.5t-369 -105.5q-137 0 -232 39l-59 -336q-8 -47 -47 -80t-86 -33t-74 33q-20 25 -20 57q0 11 2 23zM287 312q4 -40 25.5 -68.5t65.5 -44 t116 -15.5q139 0 199.5 59.5t76.5 155.5l76 428q5 33 5 61q0 15 -1 28q-4 40 -26.5 69t-65.5 44t-113 15q-72 0 -121 -15t-81.5 -44t-50 -68.5t-25.5 -89.5l-76 -428q-5 -31 -5 -60q0 -14 1 -27z" />
<glyph unicode="q" horiz-adv-x="1110" d="M49 385l82 455q31 180 162 284.5t369 104.5q240 0 334 -105q71 -80 71 -199q0 -39 -8 -83l-201 -1139q-8 -47 -46 -80t-85 -33t-73 33q-21 25 -21 59q0 10 2 21l57 336q-106 -39 -246 -39q-119 0 -200.5 27.5t-130.5 78t-65 122.5q-9 36 -9 76q0 39 8 81zM272 312 q4 -40 27 -68.5t67 -44t113 -15.5q72 0 121 15.5t81 44t50.5 68.5t26.5 87l73 428q6 37 6 69q0 10 -1 20q-2 40 -25 69t-66 44t-114 15q-70 0 -119 -15t-82 -44t-51.5 -68.5t-26.5 -89.5l-76 -428q-5 -31 -5 -60q0 -14 1 -27z" />
<glyph unicode="r" horiz-adv-x="964" d="M-20 113l129 729q14 86 42.5 157.5t85 121.5t147.5 79t234 29q43 0 93 -6q41 -4 90 -13.5t96 -25.5q49 -20 65 -57q11 -24 11 -47q0 -12 -3 -24q-9 -34 -42 -54q-18 -11 -42 -10q-19 0 -42 7q-72 23 -124 34t-116 11q-70 0 -118 -16t-79.5 -45t-49 -69t-25.5 -87 l-127 -714q-8 -45 -46 -79t-85 -34t-75 33q-21 25 -21 58q0 11 2 22z" />
<glyph unicode="s" horiz-adv-x="964" d="M8 92q6 35 32 63.5t66 28.5h390q35 0 68.5 14.5t61 40t46 60.5t24.5 74q3 18 3 34q1 56 -31 98q-40 54 -113 54h-166q-66 2 -116 30.5t-83.5 75t-47.5 105.5q-9 35 -9 72q0 26 4 53q12 70 46 130t82 105.5t107.5 72t123.5 26.5h458q42 0 58 -29q11 -21 12 -45 q0 -9 -2 -19q-6 -34 -31.5 -63t-66.5 -29h-420q-57 0 -104.5 -44t-57.5 -105q-2 -15 -2 -29q0 -44 24 -78q32 -44 91 -45h166q74 0 130 -31.5t93 -83.5q37 -54 52 -120q9 -40 9 -80q0 -27 -4 -55q-12 -78 -50 -145.5t-92 -119t-121 -80t-136 -28.5h-424q-44 0 -60 28 q-12 21 -12 46q0 9 2 18z" />
<glyph unicode="t" horiz-adv-x="970" d="M51 1137q6 39 38 65.5t71 26.5h743q39 -1 61 -27q17 -20 17 -45q0 -9 -2 -20q-6 -39 -38 -66t-71 -27h-260q-31 -174 -54.5 -307t-40.5 -231t-28.5 -166t-19.5 -111l-21 -116q-8 -47 -46 -80t-85 -33t-75 33q-21 26 -21 60q0 10 2 20l21 116q8 43 20 111t29.5 166t41 231 t54.5 307h-260q-39 0 -61 27q-17 20 -17 46q0 10 2 20z" />
<glyph unicode="u" horiz-adv-x="1132" d="M43 385l129 731q10 47 48 80t85 33t74 -33q20 -25 20 -57q0 -11 -2 -23q-12 -72 -21 -123t-17.5 -95t-15.5 -87t-17.5 -98.5t-23.5 -131t-32 -182.5q-5 -31 -6 -60q0 -14 2 -27q4 -40 25.5 -68.5t65.5 -44t116 -15.5q139 0 200.5 59.5t78.5 155.5q18 106 31.5 182 t22.5 131.5t17 98.5t15.5 87t16.5 95t22 123q10 47 48 80t85 33q48 0 74 -33q20 -25 20 -59q0 -10 -2 -21l-129 -731q-31 -174 -163 -279.5t-370 -105.5t-333 104q-72 78 -72 198q0 39 8 83z" />
<glyph unicode="v" horiz-adv-x="1028" d="M102 1108q0 25 11 47q8 18 27.5 37.5t54.5 30.5q21 6 36 6q11 0 20 -3q21 -7 34 -22q14 -16 20 -41l109 -917l420 913q12 25 34 43q18 16 45 24q11 4 25 4q19 0 43 -7q31 -10 43 -29.5t16 -38.5q2 -9 2 -19q0 -14 -4 -28l-493 -997q-18 -33 -43 -56q-23 -20 -53.5 -37.5 t-73.5 -17.5t-67.5 16.5t-39.5 38.5q-16 23 -22 56z" />
<glyph unicode="w" horiz-adv-x="1787" d="M33 389l127 727q10 47 48 80t85 33t73 -33q20 -25 21 -59q0 -10 -2 -21l-127 -715q-5 -33 -6 -61q0 -14 2 -28q4 -40 26.5 -68.5t65.5 -44t113 -15.5q72 0 121 15.5t81.5 44t50 68.5t25.5 89l127 715q8 47 47 80t86 33t74 -33q21 -25 21 -59q0 -10 -2 -21l-127 -715 q-5 -33 -5 -61q0 -14 1 -28q4 -40 26.5 -68.5t65.5 -44t112 -15.5q72 0 121 15.5t81 44t50.5 68.5t26.5 89l127 715q8 47 46 80t85 33q46 0 74 -33q21 -26 22 -60q0 -10 -2 -20l-129 -727q-33 -178 -164 -283.5t-371 -105.5q-119 0 -201.5 27.5t-129.5 78.5 q-66 -51 -158 -78.5t-215 -27.5q-238 0 -332 106q-70 78 -70 195q0 42 9 88z" />
<glyph unicode="x" horiz-adv-x="1048" d="M-5 88q-1 5 -1 9q0 41 39 89l358 430l-207 433q-12 24 -12 47q0 22 11 44q22 44 60 68q34 22 72 22h10q44 -3 66 -52l170 -357l289 357q37 45 83 49q7 1 14 1q37 0 63 -20q32 -22 40 -66q1 -7 1 -13q0 -38 -37 -82l-355 -431l213 -452q10 -20 10 -40q0 -22 -12 -44 q-22 -40 -62 -62q-31 -17 -66 -17q-10 0 -19 1q-45 6 -70 59l-164 351l-286 -351q-43 -51 -91 -57q-10 -1 -20 -1q-34 -1 -60 17q-32 22 -37 68z" />
<glyph unicode="y" horiz-adv-x="974" d="M109 1096q-1 11 -1 21q0 19 4 39q7 30 44 52q33 19 59 19q2 0 3 -1q28 -1 44 -14q20 -14 33 -38l194 -379q78 94 142 172q27 33 53.5 65.5t48 59t36.5 45t19 24.5q12 14 32 31.5t44 27.5q23 8 47 8h5q28 -1 57 -24t34 -48q2 -10 2 -19q0 -15 -5 -27q-8 -25 -31 -47 l-404 -473l-82 -459q-6 -37 -22 -65q-14 -25 -42 -45.5t-73 -20.5t-64.5 18.5t-25.5 40.5q-8 27 0 62l86 469l-213 436q-18 35 -24 70z" />
<glyph unicode="z" horiz-adv-x="1034" d="M4 98q4 24 21 45l716 901h-481q-48 0 -64 29q-10 19 -11 40q-1 11 3 23q8 34 36 63.5t69 29.5h700q27 0 44.5 -15.5t23.5 -37.5q3 -12 3 -26q0 -12 -2 -22q-5 -24 -22 -45l-716 -899h483q45 0 63 -28q13 -21 12 -46q0 -9 -2 -18q-6 -35 -34.5 -63.5t-71.5 -28.5h-698 q-29 0 -46 16q-18 14 -24 36q-4 13 -4 27q0 9 2 19z" />
<glyph unicode="{" horiz-adv-x="778" d="M53 -104l19 104l217 1229l18 104q8 43 44 74t79 31h209q43 0 68.5 -31t17.5 -74t-44 -73.5t-79 -30.5h-104l-217 -1229h104q43 0 68.5 -30.5t17.5 -73.5t-44 -74t-79 -31h-209q-43 0 -68.5 31t-17.5 74z" />
<glyph unicode="}" horiz-adv-x="776" d="M53 -104q8 43 43 73.5t80 30.5h103l217 1229h-105q-43 0 -68.5 30.5t-17.5 73.5t44 74t79 31h209q43 0 68.5 -31t17.5 -74l-18 -104l-218 -1229l-18 -104q-8 -43 -43 -74t-80 -31h-207q-45 0 -69.5 31t-16.5 74z" />
<glyph unicode="~" horiz-adv-x="739" d="M53 593.5q6 35.5 33 55.5q47 35 99.5 63.5t111.5 22.5q25 -2 46.5 -12t42 -22.5t38.5 -25.5t41 -22q33 -12 56.5 -1.5t43.5 26.5q25 20 56.5 24.5t50.5 -20.5q20 -29 12 -55.5t-30.5 -49t-52.5 -40t-50 -25.5q-33 -14 -64.5 -19.5t-66.5 1.5q-47 8 -92 41 q-23 16 -42.5 30.5t-35.5 14.5q-25 0 -48.5 -13.5t-39.5 -25.5q-18 -12 -41 -16.5t-43 10.5q-31 23 -25 58.5z" />
<glyph horiz-adv-x="491" d="M53 96l131 748q8 41 41 68.5t72 27.5h2q39 0 62.5 -27.5t15.5 -68.5l-131 -748q-8 -41 -41 -68.5t-72 -27.5q-41 0 -64.5 27.5t-15.5 68.5zM219 1118q10 47 47 79t82 32t71.5 -32t18.5 -79q-10 -47 -47 -83t-84 -36q-45 0 -70.5 36t-17.5 83z" />
<glyph horiz-adv-x="520" d="M86 1229q8 43 30.5 80t55.5 64.5t73 44t83 16.5t76.5 -16.5t57 -44t33 -64.5t1.5 -80q-6 -43 -29 -80t-55.5 -64.5t-72.5 -44t-83 -16.5t-78 16.5t-57.5 44t-31.5 64.5t-3 80zM129 1229q-10 -66 28.5 -114t104.5 -48q33 0 65.5 13.5t58.5 35t43 51t24 62.5q12 68 -27 115 t-107 47q-33 0 -64.5 -12.5t-57 -35t-44 -52t-24.5 -62.5zM197 1139l22 133q6 35 35 53t68 18t59 -14q8 -6 8 -15t-6 -15.5t-15.5 -7.5t-17.5 7q-10 8 -24.5 10.5t-27.5 -1.5t-23.5 -13.5t-12.5 -23.5l-22 -131q-4 -23 -27 -23q-20 0 -16 23z" />
<glyph horiz-adv-x="446" d="M53 1559q4 35 33 57t64 22h180q33 -2 51 -24.5t12 -54.5q-6 -33 -32.5 -57.5t-59.5 -24.5h-180q-35 0 -54.5 23.5t-13.5 58.5z" />
<glyph horiz-adv-x="567" d="M55 1229q8 47 34 89t62.5 72.5t81 49t91.5 18.5t86 -18.5t64.5 -49t35.5 -72.5t2 -89t-32.5 -89t-61.5 -73t-82 -49.5t-92 -18.5t-86 18.5t-64.5 49.5t-36 73t-2.5 89zM201 1229q-6 -35 13 -59.5t54 -24.5t64.5 24.5t36.5 59.5q6 35 -14.5 59.5t-55.5 24.5t-63.5 -24.5 t-34.5 -59.5z" />
<glyph unicode="&#xa0;" horiz-adv-x="1058" d="M-18 113q-10 -47 17.5 -80t74.5 -33t85 33t46 80l67 372h480l-66 -372q-10 -47 17.5 -80t74.5 -33t85 33t46 80l129 727q31 178 -64 283.5t-331 105.5q-240 0 -371 -105.5t-163 -281.5zM303 670l29 157q8 49 25.5 89t50 69t82 44t120.5 15q70 0 113 -15t65.5 -44 t26.5 -68.5t-4 -89.5l-27 -157h-481zM468 1563.5q-3 31.5 13 54.5q18 23 50 23.5t57 -21.5l143 -123q29 -23 34 -55.5t-13 -55.5t-50 -21.5t-61 24.5l-143 120q-27 23 -30 54.5z" />
<glyph unicode="&#xa1;" horiz-adv-x="1058" d="M-18 113l127 729q33 176 163.5 281.5t370.5 105.5q236 0 331 -105.5t64 -283.5l-129 -727q-8 -47 -46 -80t-85 -33t-74.5 33t-17.5 80l66 372h-480l-67 -372q-8 -47 -46 -80t-85 -33t-75 33t-17 80zM303 670h481l27 157q8 49 4 89t-26.5 69t-65.5 44t-113 15 q-72 0 -121 -15t-81.5 -44t-50 -68.5t-25.5 -89.5zM557 1440q6 33 35 55l143 123q25 23 57 22t50 -24q16 -23 13 -54.5t-30 -54.5l-143 -121q-29 -23 -60.5 -23.5t-50.5 21.5q-20 23 -14 56z" />
<glyph unicode="&#xa2;" horiz-adv-x="1058" d="M-18 113l127 729q33 176 163.5 281.5t370.5 105.5q236 0 331 -105.5t64 -283.5l-129 -727q-8 -47 -46 -80t-85 -33t-74.5 33t-17.5 80l66 372h-480l-67 -372q-8 -47 -46 -80t-85 -33t-75 33t-17 80zM303 670h481l27 157q8 49 4 89t-26.5 69t-65.5 44t-113 15 q-72 0 -121 -15t-81.5 -44t-50 -68.5t-25.5 -89.5zM407 1442q11 33 44 55q63 47 98 73.5t53 39.5q20 14 27 18q14 10 41 10q12 0 23.5 -2t19.5 -8l131 -131q23 -23 23.5 -55.5t-21.5 -55.5q-23 -23 -55.5 -21.5t-55.5 24.5l-92 90l-123 -90q-31 -23 -62.5 -24t-47.5 21 q-14 23 -3 56z" />
<glyph unicode="&#xa3;" horiz-adv-x="1058" d="M-18 113q-10 -47 17.5 -80t74.5 -33t85 33t46 80l67 372h480l-66 -372q-10 -47 17.5 -80t74.5 -33t85 33t46 80l129 727q31 178 -64 283.5t-331 105.5q-240 0 -371 -105.5t-163 -281.5zM303 670l29 157q8 49 25.5 89t50 69t82 44t120.5 15q70 0 113 -15t65.5 -44 t26.5 -68.5t-4 -89.5l-27 -157h-481zM437 1548q9 21 24 35q23 23 56.5 39t68.5 16q27 0 47 -9t36.5 -20.5t30 -20.5t27.5 -9q29 0 49 20q16 14 37 17.5t33 -12.5q16 -20 7.5 -39t-24.5 -33q-23 -23 -55.5 -39t-66.5 -16q-29 0 -49.5 9t-37 20.5t-29.5 20.5t-26 9 q-16 0 -30.5 -8t-24.5 -19q-31 -25 -59 0q-23 18 -14 39z" />
<glyph unicode="&#xa4;" horiz-adv-x="1058" d="M-18 113q-10 -47 17.5 -80t74.5 -33t85 33t46 80l67 372h480l-66 -372q-10 -47 17.5 -80t74.5 -33t85 33t46 80l129 727q31 178 -64 283.5t-331 105.5q-240 0 -371 -105.5t-163 -281.5zM303 670l29 157q8 49 25.5 89t50 69t82 44t120.5 15q70 0 113 -15t65.5 -44 t26.5 -68.5t-4 -89.5l-27 -157h-481zM459 1556q6 33 32.5 57.5t59.5 24.5t51 -22t12 -55t-32.5 -58.5t-59.5 -25.5t-51 23.5t-12 55.5zM690 1556q-6 -33 12.5 -56t51.5 -23t59.5 25.5t32.5 58.5t-12.5 55t-51.5 22t-59.5 -24.5t-32.5 -57.5z" />
<glyph unicode="&#xa5;" horiz-adv-x="1058" d="M-18 113l127 729q33 176 163.5 281.5t370.5 105.5q236 0 331 -105.5t64 -283.5l-129 -727q-8 -47 -46 -80t-85 -33t-74.5 33t-17.5 80l66 372h-480l-67 -372q-8 -47 -46 -80t-85 -33t-75 33t-17 80zM303 670h481l27 157q8 49 4 89t-26.5 69t-65.5 44t-113 15 q-72 0 -121 -15t-81.5 -44t-50 -68.5t-25.5 -89.5zM530 1501q10 57 57.5 97t104.5 40t90 -39.5t23 -97.5q-10 -57 -57.5 -97t-104.5 -40t-90 40t-23 97zM627 1501q-4 -16 6 -28.5t26 -12.5t31 12.5t19 28.5t-7.5 28.5t-27.5 12.5t-29.5 -12t-17.5 -29z" />
<glyph unicode="&#xa6;" horiz-adv-x="1630" d="M-18 113l129 729q33 180 162.5 283.5t369.5 103.5h858q39 0 61.5 -26.5t14.5 -65.5q-6 -39 -38 -66t-71 -27h-393l-65 -374h407q33 0 50.5 -27t11.5 -65q-6 -39 -34 -66t-61 -27h-407l-53 -301h407q33 0 51.5 -26.5t10.5 -65.5q-6 -37 -34 -64.5t-61 -27.5h-520 q-47 0 -73.5 33t-18.5 80l66 372h-480l-65 -372q-8 -47 -46 -80t-85 -33t-75 33t-19 80zM305 670h479l29 159q8 47 4 87t-26.5 69t-64.5 44t-110 15h-6q-72 0 -121 -15t-80.5 -44t-49 -68.5t-25.5 -87.5z" />
<glyph unicode="&#xa7;" horiz-adv-x="993" d="M43 268q-4 84 16 199l68 383q8 43 29.5 106.5t74 122t146.5 101.5t246 49q45 2 96 -2q43 -4 94.5 -13.5t104.5 -29.5q51 -18 62 -56t-4 -73t-52 -55.5t-80 -4.5q-72 25 -119 34t-94 11q-23 0 -64 -4t-84 -26.5t-80.5 -68.5t-52.5 -132q-16 -86 -29.5 -163t-23.5 -136 q-12 -68 -23 -127q-10 -55 9 -96q16 -37 61 -67t150 -30q16 0 58 3.5t69 9.5q14 2 36.5 9t46 10t46 2t34.5 -13t21.5 -34.5t6.5 -47.5t-23.5 -49.5t-69.5 -40.5q-33 -12 -73 -20.5t-85 -12.5q10 -45 2 -88q-8 -47 -33.5 -89t-62.5 -72.5t-81 -49t-91 -18.5q-31 0 -48.5 21.5 t-10.5 49.5q4 29 29.5 50.5t53.5 21.5q35 0 65 24.5t36 59.5q4 31 -10.5 55.5t-40.5 30.5q-111 8 -180.5 38t-105.5 87t-40 141z" />
<glyph unicode="&#xa8;" d="M31 385q-31 -178 63 -281.5t332 -103.5h375q37 0 68.5 26.5t39.5 65.5q6 41 -17.5 66.5t-60.5 25.5h-370q-72 0 -116 15.5t-65.5 44t-25.5 68.5t4 87l16 86h611q39 0 70.5 27t37.5 66l47 262q31 178 -64 283.5t-331 105.5q-240 0 -371 -105.5t-163 -281.5zM305 670 l29 157q8 49 25.5 89t50 69t82 44t120.5 15q70 0 113 -15t65.5 -44t26.5 -68.5t-4 -89.5l-27 -157h-481zM457.5 1563.5q-2.5 31.5 13.5 54.5q18 23 50 23.5t57 -21.5l143 -123q29 -23 34 -55.5t-14 -55.5q-18 -23 -50 -21.5t-60 24.5l-144 120q-27 23 -29.5 54.5z" />
<glyph unicode="&#xa9;" d="M31 385l80 457q33 176 163.5 281.5t370.5 105.5q236 0 331 -105.5t64 -283.5l-47 -262q-6 -39 -37.5 -66t-70.5 -27h-611l-16 -86q-8 -47 -4 -87t25.5 -68.5t65.5 -44t116 -15.5h370q37 0 60.5 -25.5t17.5 -66.5q-8 -39 -39.5 -65.5t-68.5 -26.5h-375q-238 0 -332 103.5 t-63 281.5zM305 670h481l27 157q8 49 4 89t-26.5 69t-65.5 44t-113 15q-72 0 -121 -15t-81.5 -44t-50 -68.5t-25.5 -89.5zM483.5 1440q5.5 33 34.5 55l144 123q25 23 56.5 22t49.5 -24q16 -23 13 -54.5t-29 -54.5l-144 -121q-29 -23 -60.5 -23.5t-49.5 21.5q-20 23 -14.5 56 z" />
<glyph unicode="&#xaa;" d="M31 385l80 457q33 176 163.5 281.5t370.5 105.5q236 0 331 -105.5t64 -283.5l-47 -262q-6 -39 -37.5 -66t-70.5 -27h-611l-16 -86q-8 -47 -4 -87t25.5 -68.5t65.5 -44t116 -15.5h370q37 0 60.5 -25.5t17.5 -66.5q-8 -39 -39.5 -65.5t-68.5 -26.5h-375q-238 0 -332 103.5 t-63 281.5zM305 670h481l27 157q8 49 4 89t-26.5 69t-65.5 44t-113 15q-72 0 -121 -15t-81.5 -44t-50 -68.5t-25.5 -89.5zM409 1442q11 33 44 55q63 47 98 73.5t53 39.5q20 14 27 18q14 10 41 10q12 0 23.5 -2t19.5 -8l131 -131q23 -23 23.5 -55.5t-21.5 -55.5 q-23 -23 -55.5 -21.5t-55.5 24.5l-92 90l-123 -90q-31 -23 -62.5 -24t-47.5 21q-14 23 -3 56z" />
<glyph unicode="&#xab;" d="M31 385q-31 -178 63 -281.5t332 -103.5h375q37 0 68.5 26.5t39.5 65.5q6 41 -17.5 66.5t-60.5 25.5h-370q-72 0 -116 15.5t-65.5 44t-25.5 68.5t4 87l16 86h611q39 0 70.5 27t37.5 66l47 262q31 178 -64 283.5t-331 105.5q-240 0 -371 -105.5t-163 -281.5zM305 670 l29 157q8 49 25.5 89t50 69t82 44t120.5 15q70 0 113 -15t65.5 -44t26.5 -68.5t-4 -89.5l-27 -157h-481zM453 1556q6 33 32.5 57.5t59.5 24.5t51 -22t12 -55t-32.5 -58.5t-59.5 -25.5t-51.5 23.5t-11.5 55.5zM684 1556q-6 -33 12.5 -56t51.5 -23t59.5 25.5t32.5 58.5 t-12.5 55t-51.5 22t-59.5 -24.5t-32.5 -57.5z" />
<glyph unicode="&#xac;" horiz-adv-x="407" d="M-6 115q-8 -47 18.5 -81t73.5 -34t85 33t46 80q2 16 23 127q8 47 21 118.5t31.5 178t43 249t59.5 330.5q8 47 -19.5 80t-74.5 33t-85 -33t-46 -80zM120 1563.5q-3 31.5 13 54.5q18 23 50 23.5t57 -21.5l143 -123q29 -23 34 -55.5t-14 -55.5q-18 -23 -49.5 -21.5 t-60.5 24.5l-143 120q-27 23 -30 54.5z" />
<glyph unicode="&#xad;" horiz-adv-x="407" d="M-6 115l176 1001q8 47 46 80t85 33t74.5 -33t19.5 -80q-35 -188 -59.5 -330.5t-43 -249t-31.5 -178t-21 -118.5q-20 -111 -23 -127q-8 -47 -46 -80t-85 -33t-73.5 34t-18.5 81zM201 1440q6 33 35 55l143 123q25 23 56.5 22t49.5 -24q16 -23 13.5 -54.5t-29.5 -54.5 l-143 -121q-29 -23 -61 -23.5t-50 21.5q-20 23 -14 56z" />
<glyph unicode="&#xae;" horiz-adv-x="407" d="M-6 115l176 1001q8 47 46 80t85 33t74.5 -33t19.5 -80q-35 -188 -59.5 -330.5t-43 -249t-31.5 -178t-21 -118.5q-20 -111 -23 -127q-8 -47 -46 -80t-85 -33t-73.5 34t-18.5 81zM85 1442q11 33 44 55q63 47 98 73.5t54 39.5q20 14 26 18q14 10 41 10q12 0 23.5 -2t19.5 -8 l131 -131q23 -23 24 -55.5t-22 -55.5t-55.5 -21.5t-54.5 24.5l-92 90l-123 -90q-31 -23 -63 -24t-48 21q-14 23 -3 56z" />
<glyph unicode="&#xaf;" horiz-adv-x="407" d="M-6 115q-8 -47 18.5 -81t73.5 -34t85 33t46 80q2 16 23 127q8 47 21 118.5t31.5 178t43 249t59.5 330.5q8 47 -19.5 80t-74.5 33t-85 -33t-46 -80zM154 1556q6 33 32.5 57.5t59.5 24.5t51 -22t12 -55t-32.5 -58.5t-59.5 -25.5t-51.5 23.5t-11.5 55.5zM385 1556 q-6 -33 12.5 -56t51.5 -23t59.5 25.5t32.5 58.5t-12.5 55t-51.5 22t-59.5 -24.5t-32.5 -57.5z" />
<glyph unicode="&#xb0;" horiz-adv-x="1175" d="M51 387l80 457q33 180 163 282.5t370 102.5q72 0 129 -10.5t104 -28.5l8 49q8 47 4 87t-25.5 68.5t-65.5 44t-116 15.5h-192q-39 0 -61.5 26.5t-14.5 65.5q6 39 38 65.5t71 26.5h194q238 0 332 -103t64 -282l-103 -583h90q39 0 61.5 -27t14.5 -65q-6 -39 -38 -66t-71 -27 h-90l-16 -96q-33 -180 -164 -284.5t-368 -104.5q-240 0 -334.5 104.5t-63.5 282.5zM273.5 312q2.5 -40 25.5 -68.5t67 -44t115 -15.5q137 0 198.5 60.5t78.5 156.5l14 84h-92q-37 0 -59.5 27t-16.5 66q8 39 39 65.5t70 26.5h92l29 159q8 47 4 87t-27 69t-66 44t-112 15 q-72 0 -122 -15t-82 -44t-49.5 -68.5t-25.5 -87.5l-75 -428q-8 -49 -5.5 -89z" />
<glyph unicode="&#xb1;" horiz-adv-x="1107" d="M8 113q-8 -47 18.5 -80t73.5 -33t85 33t48 80l125 714q8 49 25.5 89t50.5 69t82 44t121 15q70 0 114 -15t66.5 -44t26.5 -68.5t-4 -89.5l-127 -714q-8 -47 18.5 -80t73.5 -33t85 33t48 80l127 727q33 178 -62 283.5t-333 105.5t-370 -105.5t-163 -281.5zM498.5 1548 q9.5 21 23.5 35q23 23 56.5 39t68.5 16q27 0 47.5 -9t37 -20.5t29.5 -20.5t27 -9q29 0 50 20q16 14 36.5 17.5t32.5 -12.5q16 -20 8 -39t-24 -33q-23 -23 -55.5 -39t-67.5 -16q-29 0 -49.5 9t-36.5 20.5t-29.5 20.5t-25.5 9q-16 0 -30.5 -8t-25.5 -19q-31 -25 -59 0 q-23 18 -13.5 39z" />
<glyph unicode="&#xb2;" horiz-adv-x="1083" d="M25 385l79 457q33 176 164 281.5t371 105.5q236 0 331 -105.5t62 -283.5l-80 -453v-2q-31 -174 -163 -279.5t-369 -105.5q-238 0 -333 103.5t-62 281.5zM248 312q4 -40 25.5 -68.5t65.5 -44t116 -15.5q139 0 199.5 59.5t76.5 155.5l76 428q8 49 4 89t-26.5 69t-65.5 44 t-113 15q-72 0 -121 -15t-81.5 -44t-50 -68.5t-25.5 -89.5l-76 -428q-8 -47 -4 -87zM453.5 1563.5q-2.5 31.5 13.5 54.5q18 23 50 23.5t56 -21.5l144 -123q29 -23 34 -55.5t-14 -55.5q-18 -23 -50 -21.5t-60 24.5l-144 120q-27 23 -29.5 54.5z" />
<glyph unicode="&#xb3;" horiz-adv-x="1083" d="M25 385l79 457q33 176 164 281.5t371 105.5q236 0 331 -105.5t62 -283.5l-80 -453v-2q-31 -174 -163 -279.5t-369 -105.5q-238 0 -333 103.5t-62 281.5zM248 312q4 -40 25.5 -68.5t65.5 -44t116 -15.5q139 0 199.5 59.5t76.5 155.5l76 428q8 49 4 89t-26.5 69t-65.5 44 t-113 15q-72 0 -121 -15t-81.5 -44t-50 -68.5t-25.5 -89.5l-76 -428q-8 -47 -4 -87zM516 1440q6 33 35 55l143 123q25 23 57 22t50 -24q16 -23 13 -54.5t-30 -54.5l-143 -121q-29 -23 -60.5 -23.5t-50.5 21.5q-20 23 -14 56z" />
<glyph unicode="&#xb4;" horiz-adv-x="1083" d="M25 385l79 457q33 176 164 281.5t371 105.5q236 0 331 -105.5t62 -283.5l-80 -453v-2q-31 -174 -163 -279.5t-369 -105.5q-238 0 -333 103.5t-62 281.5zM248 312q4 -40 25.5 -68.5t65.5 -44t116 -15.5q139 0 199.5 59.5t76.5 155.5l76 428q8 49 4 89t-26.5 69t-65.5 44 t-113 15q-72 0 -121 -15t-81.5 -44t-50 -68.5t-25.5 -89.5l-76 -428q-8 -47 -4 -87zM403 1442q11 33 43 55q63 47 98.5 73.5t53.5 39.5q20 14 27 18q14 10 41 10q12 0 23 -2t20 -8l131 -131q23 -23 23.5 -55.5t-21.5 -55.5q-23 -23 -55.5 -21.5t-55.5 24.5l-92 90l-123 -90 q-31 -23 -62.5 -24t-47.5 21q-14 23 -3 56z" />
<glyph unicode="&#xb5;" horiz-adv-x="1083" d="M25 385l79 457q33 176 164 281.5t371 105.5q236 0 331 -105.5t62 -283.5l-80 -453v-2q-31 -174 -163 -279.5t-369 -105.5q-238 0 -333 103.5t-62 281.5zM248 312q4 -40 25.5 -68.5t65.5 -44t116 -15.5q139 0 199.5 59.5t76.5 155.5l76 428q8 49 4 89t-26.5 69t-65.5 44 t-113 15q-72 0 -121 -15t-81.5 -44t-50 -68.5t-25.5 -89.5l-76 -428q-8 -47 -4 -87zM471.5 1548q9.5 21 24.5 35q23 23 56.5 39t68.5 16q27 0 47 -9t36.5 -20.5t30 -20.5t27.5 -9q29 0 49 20q16 14 36.5 17.5t33.5 -12.5q16 -20 7.5 -39t-24.5 -33q-23 -23 -55.5 -39 t-67.5 -16q-29 0 -49 9t-36.5 20.5t-30 20.5t-25.5 9q-16 0 -30.5 -8t-24.5 -19q-31 -25 -60 0q-23 18 -13.5 39z" />
<glyph unicode="&#xb6;" horiz-adv-x="1083" d="M25 385l79 457q33 176 164 281.5t371 105.5q236 0 331 -105.5t62 -283.5l-80 -453v-2q-31 -174 -163 -279.5t-369 -105.5q-238 0 -333 103.5t-62 281.5zM248 312q4 -40 25.5 -68.5t65.5 -44t116 -15.5q139 0 199.5 59.5t76.5 155.5l76 428q8 49 4 89t-26.5 69t-65.5 44 t-113 15q-72 0 -121 -15t-81.5 -44t-50 -68.5t-25.5 -89.5l-76 -428q-8 -47 -4 -87zM483 1556q6 33 33 57.5t59 24.5q33 0 51.5 -22t12.5 -55t-32.5 -58.5t-59.5 -25.5t-51.5 23.5t-12.5 55.5zM715 1556q-6 -33 12 -56t51 -23t59.5 25.5t32.5 58.5t-12 55t-51 22 t-59.5 -24.5t-32.5 -57.5z" />
<glyph unicode="&#xb8;" horiz-adv-x="1105" d="M-31 -57.5q-4 37.5 23 69.5l90 123q-63 94 -35 250l80 455q31 178 162 283.5t370 105.5q129 0 222 -35l86 115q25 33 63.5 43t67.5 -11q31 -18 34 -55t-22 -69l-94 -125q35 -49 43 -113t-4 -139l-80 -455q-31 -176 -163 -280.5t-370 -104.5q-68 0 -123 8t-100 25 l-84 -113q-27 -33 -64.5 -43t-68.5 10q-29 18 -33 55.5zM268 383l486 641q-25 10 -55.5 15t-71.5 5q-72 0 -121 -15t-82 -44t-50.5 -68.5t-25.5 -89.5l-76 -428q-2 -4 -2 -8t-2 -8zM348 205q43 -20 127 -21q139 0 199.5 59.5t77.5 155.5l75 428q0 4 1 8.5t1 8.5z" />
<glyph unicode="&#xb9;" horiz-adv-x="1150" d="M61 385q-31 -178 64.5 -281.5t333.5 -103.5t370 105.5t162 279.5l129 731q8 47 -18.5 80t-73.5 33t-85 -33t-48 -80q-12 -72 -21.5 -123t-16.5 -95t-15 -87t-17.5 -98.5t-23 -131t-31.5 -182.5q-16 -96 -77.5 -155.5t-200.5 -59.5q-72 0 -116 15.5t-65.5 44t-25.5 68.5 t4 87q18 106 31.5 182t23.5 131.5t17.5 98.5t15.5 87t17 95t22 123q8 47 -18.5 80t-73.5 33t-85 -33t-49 -80zM505 1563.5q-3 31.5 13 54.5q18 23 50 23.5t57 -21.5l143 -123q29 -23 34 -55.5t-14 -55.5q-18 -23 -49.5 -21.5t-60.5 24.5l-143 120q-27 23 -30 54.5z" />
<glyph unicode="&#xba;" horiz-adv-x="1150" d="M61 385l129 731q10 47 48 80t86 33q47 0 73.5 -33t18.5 -80q-12 -72 -21.5 -123t-17.5 -95t-15.5 -87t-17.5 -98.5t-23.5 -131t-31.5 -182.5q-8 -47 -4 -87t25.5 -68.5t65.5 -44t116 -15.5q139 0 200.5 59.5t77.5 155.5q18 106 31.5 182t23 131.5t17.5 98.5t15 87 t16.5 95t21.5 123q10 47 48 80t85 33t73.5 -33t18.5 -80l-129 -731q-31 -174 -163 -279.5t-369 -105.5q-238 0 -333 103.5t-65 281.5zM567.5 1440q5.5 33 34.5 55l143 123q25 23 57 22t50 -24q16 -23 13 -54.5t-29 -54.5l-144 -121q-29 -23 -60.5 -23.5t-49.5 21.5 q-20 23 -14.5 56z" />
<glyph unicode="&#xbb;" horiz-adv-x="1150" d="M61 385l129 731q10 47 48 80t86 33q47 0 73.5 -33t18.5 -80q-12 -72 -21.5 -123t-17.5 -95t-15.5 -87t-17.5 -98.5t-23.5 -131t-31.5 -182.5q-8 -47 -4 -87t25.5 -68.5t65.5 -44t116 -15.5q139 0 200.5 59.5t77.5 155.5q18 106 31.5 182t23 131.5t17.5 98.5t15 87 t16.5 95t21.5 123q10 47 48 80t85 33t73.5 -33t18.5 -80l-129 -731q-31 -174 -163 -279.5t-369 -105.5q-238 0 -333 103.5t-65 281.5zM454 1442q11 33 44 55q63 47 98 73.5t53 39.5q20 14 27 18q14 10 41 10q12 0 23.5 -2t19.5 -8l131 -131q23 -23 23.5 -55.5t-21.5 -55.5 q-23 -23 -55.5 -21.5t-55.5 24.5l-92 90l-123 -90q-31 -23 -62.5 -24t-47.5 21q-14 23 -3 56z" />
<glyph unicode="&#xbc;" horiz-adv-x="1150" d="M61 385q-31 -178 64.5 -281.5t333.5 -103.5t370 105.5t162 279.5l129 731q8 47 -18.5 80t-73.5 33t-85 -33t-48 -80q-12 -72 -21.5 -123t-16.5 -95t-15 -87t-17.5 -98.5t-23 -131t-31.5 -182.5q-16 -96 -77.5 -155.5t-200.5 -59.5q-72 0 -116 15.5t-65.5 44t-25.5 68.5 t4 87q18 106 31.5 182t23.5 131.5t17.5 98.5t15.5 87t17 95t22 123q8 47 -18.5 80t-73.5 33t-85 -33t-49 -80zM494 1556q6 33 32.5 57.5t59.5 24.5t51 -22t12 -55t-32.5 -58.5t-59.5 -25.5t-51.5 23.5t-11.5 55.5zM725 1556q-6 -33 12.5 -56t50.5 -23q33 0 59.5 25.5 t33.5 58.5q6 33 -12.5 55t-51.5 22t-59.5 -24.5t-32.5 -57.5z" />
<glyph unicode="&#xbd;" horiz-adv-x="964" d="M127 1096q-4 29 3 59.5t44 52.5q35 20 62.5 18.5t44.5 -14.5q20 -14 32 -38l195 -379q78 94 141 172q27 33 53.5 65.5t48 59t37 45t19.5 24.5q12 14 31.5 31.5t44 27t52.5 8.5t56 -24q29 -23 34 -48.5t-3 -45.5q-8 -25 -31 -47l-403 -473l-82 -459q-6 -37 -23 -65 q-14 -25 -41.5 -45.5t-72.5 -20.5t-64.5 18.5t-25.5 40.5q-8 27 0 62l86 469l-213 436q-18 35 -25 70zM498 1440q6 33 34 55l144 123q25 23 56.5 22t49.5 -24q16 -23 13.5 -54.5t-29.5 -54.5l-143 -121q-29 -23 -61 -23.5t-50 21.5q-20 23 -14 56z" />
<glyph unicode="&#xc0;" horiz-adv-x="1058" d="M-18 113q-10 -47 17.5 -80t74.5 -33t85 33t46 80l67 372h480l-66 -372q-10 -47 17.5 -80t74.5 -33t85 33t46 80l129 727q31 178 -64 283.5t-331 105.5q-240 0 -371 -105.5t-163 -281.5zM303 670l29 157q8 49 25.5 89t50 69t82 44t120.5 15q70 0 113 -15t65.5 -44 t26.5 -68.5t-4 -89.5l-27 -157h-481zM468 1563.5q-3 31.5 13 54.5q18 23 50 23.5t57 -21.5l143 -123q29 -23 34 -55.5t-13 -55.5t-50 -21.5t-61 24.5l-143 120q-27 23 -30 54.5z" />
<glyph unicode="&#xc1;" horiz-adv-x="1058" d="M-18 113l127 729q33 176 163.5 281.5t370.5 105.5q236 0 331 -105.5t64 -283.5l-129 -727q-8 -47 -46 -80t-85 -33t-74.5 33t-17.5 80l66 372h-480l-67 -372q-8 -47 -46 -80t-85 -33t-75 33t-17 80zM303 670h481l27 157q8 49 4 89t-26.5 69t-65.5 44t-113 15 q-72 0 -121 -15t-81.5 -44t-50 -68.5t-25.5 -89.5zM557 1440q6 33 35 55l143 123q25 23 57 22t50 -24q16 -23 13 -54.5t-30 -54.5l-143 -121q-29 -23 -60.5 -23.5t-50.5 21.5q-20 23 -14 56z" />
<glyph unicode="&#xc2;" horiz-adv-x="1058" d="M-18 113l127 729q33 176 163.5 281.5t370.5 105.5q236 0 331 -105.5t64 -283.5l-129 -727q-8 -47 -46 -80t-85 -33t-74.5 33t-17.5 80l66 372h-480l-67 -372q-8 -47 -46 -80t-85 -33t-75 33t-17 80zM303 670h481l27 157q8 49 4 89t-26.5 69t-65.5 44t-113 15 q-72 0 -121 -15t-81.5 -44t-50 -68.5t-25.5 -89.5zM407 1442q11 33 44 55q63 47 98 73.5t53 39.5q20 14 27 18q14 10 41 10q12 0 23.5 -2t19.5 -8l131 -131q23 -23 23.5 -55.5t-21.5 -55.5q-23 -23 -55.5 -21.5t-55.5 24.5l-92 90l-123 -90q-31 -23 -62.5 -24t-47.5 21 q-14 23 -3 56z" />
<glyph unicode="&#xc3;" horiz-adv-x="1058" d="M-18 113q-10 -47 17.5 -80t74.5 -33t85 33t46 80l67 372h480l-66 -372q-10 -47 17.5 -80t74.5 -33t85 33t46 80l129 727q31 178 -64 283.5t-331 105.5q-240 0 -371 -105.5t-163 -281.5zM303 670l29 157q8 49 25.5 89t50 69t82 44t120.5 15q70 0 113 -15t65.5 -44 t26.5 -68.5t-4 -89.5l-27 -157h-481zM437 1548q9 21 24 35q23 23 56.5 39t68.5 16q27 0 47 -9t36.5 -20.5t30 -20.5t27.5 -9q29 0 49 20q16 14 37 17.5t33 -12.5q16 -20 7.5 -39t-24.5 -33q-23 -23 -55.5 -39t-66.5 -16q-29 0 -49.5 9t-37 20.5t-29.5 20.5t-26 9 q-16 0 -30.5 -8t-24.5 -19q-31 -25 -59 0q-23 18 -14 39z" />
<glyph unicode="&#xc4;" horiz-adv-x="1058" d="M-18 113q-10 -47 17.5 -80t74.5 -33t85 33t46 80l67 372h480l-66 -372q-10 -47 17.5 -80t74.5 -33t85 33t46 80l129 727q31 178 -64 283.5t-331 105.5q-240 0 -371 -105.5t-163 -281.5zM303 670l29 157q8 49 25.5 89t50 69t82 44t120.5 15q70 0 113 -15t65.5 -44 t26.5 -68.5t-4 -89.5l-27 -157h-481zM459 1556q6 33 32.5 57.5t59.5 24.5t51 -22t12 -55t-32.5 -58.5t-59.5 -25.5t-51 23.5t-12 55.5zM690 1556q-6 -33 12.5 -56t51.5 -23t59.5 25.5t32.5 58.5t-12.5 55t-51.5 22t-59.5 -24.5t-32.5 -57.5z" />
<glyph unicode="&#xc5;" horiz-adv-x="1079" d="M-18 113l127 729q33 176 163.5 281.5t370.5 105.5q236 0 331 -105.5t64 -283.5l-129 -727q-8 -47 -46 -80t-85 -33t-74.5 33t-17.5 80l66 372h-480l-67 -372q-8 -47 -46 -80t-85 -33t-75 33t-17 80zM303 670h481l27 157q8 49 4 89t-26.5 69t-65.5 44t-113 15 q-72 0 -121 -15t-81.5 -44t-50 -68.5t-25.5 -89.5zM530 1501q10 57 57.5 97t104.5 40t90 -39.5t23 -97.5q-10 -57 -57.5 -97t-104.5 -40t-90 40t-23 97zM627 1501q-4 -16 6 -28.5t26 -12.5t31 12.5t19 28.5t-7.5 28.5t-27.5 12.5t-29.5 -12t-17.5 -29z" />
<glyph unicode="&#xc6;" horiz-adv-x="1630" d="M-18 113l129 729q33 180 162.5 283.5t369.5 103.5h858q39 0 61.5 -26.5t14.5 -65.5q-6 -39 -38 -66t-71 -27h-393l-65 -374h407q33 0 50.5 -27t11.5 -65q-6 -39 -34 -66t-61 -27h-407l-53 -301h407q33 0 51.5 -26.5t10.5 -65.5q-6 -37 -34 -64.5t-61 -27.5h-520 q-47 0 -73.5 33t-18.5 80l66 372h-480l-65 -372q-8 -47 -46 -80t-85 -33t-75 33t-19 80zM305 670h479l29 159q8 47 4 87t-26.5 69t-64.5 44t-110 15h-6q-72 0 -121 -15t-80.5 -44t-49 -68.5t-25.5 -87.5z" />
<glyph unicode="&#xc7;" horiz-adv-x="993" d="M43 268q-4 84 16 199l68 383q8 43 29.5 106.5t74 122t146.5 101.5t246 49q45 2 96 -2q43 -4 94.5 -13.5t104.5 -29.5q51 -18 62 -56t-4 -73t-52 -55.5t-80 -4.5q-72 25 -119 34t-94 11q-23 0 -64 -4t-84 -26.5t-80.5 -68.5t-52.5 -132q-16 -86 -29.5 -163t-23.5 -136 q-12 -68 -23 -127q-10 -55 9 -96q16 -37 61 -67t150 -30q16 0 58 3.5t69 9.5q14 2 36.5 9t46 10t46 2t34.5 -13t21.5 -34.5t6.5 -47.5t-23.5 -49.5t-69.5 -40.5q-33 -12 -73 -20.5t-85 -12.5q10 -45 2 -88q-8 -47 -33.5 -89t-62.5 -72.5t-81 -49t-91 -18.5q-31 0 -48.5 21.5 t-10.5 49.5q4 29 29.5 50.5t53.5 21.5q35 0 65 24.5t36 59.5q4 31 -10.5 55.5t-40.5 30.5q-111 8 -180.5 38t-105.5 87t-40 141z" />
<glyph unicode="&#xc8;" d="M31 385q-31 -178 63 -281.5t332 -103.5h375q37 0 68.5 26.5t39.5 65.5q6 41 -17.5 66.5t-60.5 25.5h-370q-72 0 -116 15.5t-65.5 44t-25.5 68.5t4 87l16 86h611q39 0 70.5 27t37.5 66l47 262q31 178 -64 283.5t-331 105.5q-240 0 -371 -105.5t-163 -281.5zM305 670 l29 157q8 49 25.5 89t50 69t82 44t120.5 15q70 0 113 -15t65.5 -44t26.5 -68.5t-4 -89.5l-27 -157h-481zM457.5 1563.5q-2.5 31.5 13.5 54.5q18 23 50 23.5t57 -21.5l143 -123q29 -23 34 -55.5t-14 -55.5q-18 -23 -50 -21.5t-60 24.5l-144 120q-27 23 -29.5 54.5z" />
<glyph unicode="&#xc9;" d="M31 385l80 457q33 176 163.5 281.5t370.5 105.5q236 0 331 -105.5t64 -283.5l-47 -262q-6 -39 -37.5 -66t-70.5 -27h-611l-16 -86q-8 -47 -4 -87t25.5 -68.5t65.5 -44t116 -15.5h370q37 0 60.5 -25.5t17.5 -66.5q-8 -39 -39.5 -65.5t-68.5 -26.5h-375q-238 0 -332 103.5 t-63 281.5zM305 670h481l27 157q8 49 4 89t-26.5 69t-65.5 44t-113 15q-72 0 -121 -15t-81.5 -44t-50 -68.5t-25.5 -89.5zM483.5 1440q5.5 33 34.5 55l144 123q25 23 56.5 22t49.5 -24q16 -23 13 -54.5t-29 -54.5l-144 -121q-29 -23 -60.5 -23.5t-49.5 21.5q-20 23 -14.5 56 z" />
<glyph unicode="&#xca;" d="M31 385l80 457q33 176 163.5 281.5t370.5 105.5q236 0 331 -105.5t64 -283.5l-47 -262q-6 -39 -37.5 -66t-70.5 -27h-611l-16 -86q-8 -47 -4 -87t25.5 -68.5t65.5 -44t116 -15.5h370q37 0 60.5 -25.5t17.5 -66.5q-8 -39 -39.5 -65.5t-68.5 -26.5h-375q-238 0 -332 103.5 t-63 281.5zM305 670h481l27 157q8 49 4 89t-26.5 69t-65.5 44t-113 15q-72 0 -121 -15t-81.5 -44t-50 -68.5t-25.5 -89.5zM409 1442q11 33 44 55q63 47 98 73.5t53 39.5q20 14 27 18q14 10 41 10q12 0 23.5 -2t19.5 -8l131 -131q23 -23 23.5 -55.5t-21.5 -55.5 q-23 -23 -55.5 -21.5t-55.5 24.5l-92 90l-123 -90q-31 -23 -62.5 -24t-47.5 21q-14 23 -3 56z" />
<glyph unicode="&#xcb;" d="M31 385q-31 -178 63 -281.5t332 -103.5h375q37 0 68.5 26.5t39.5 65.5q6 41 -17.5 66.5t-60.5 25.5h-370q-72 0 -116 15.5t-65.5 44t-25.5 68.5t4 87l16 86h611q39 0 70.5 27t37.5 66l47 262q31 178 -64 283.5t-331 105.5q-240 0 -371 -105.5t-163 -281.5zM305 670 l29 157q8 49 25.5 89t50 69t82 44t120.5 15q70 0 113 -15t65.5 -44t26.5 -68.5t-4 -89.5l-27 -157h-481zM453 1556q6 33 32.5 57.5t59.5 24.5t51 -22t12 -55t-32.5 -58.5t-59.5 -25.5t-51.5 23.5t-11.5 55.5zM684 1556q-6 -33 12.5 -56t51.5 -23t59.5 25.5t32.5 58.5 t-12.5 55t-51.5 22t-59.5 -24.5t-32.5 -57.5z" />
<glyph unicode="&#xcc;" horiz-adv-x="407" d="M-6 115q-8 -47 18.5 -81t73.5 -34t85 33t46 80q2 16 23 127q8 47 21 118.5t31.5 178t43 249t59.5 330.5q8 47 -19.5 80t-74.5 33t-85 -33t-46 -80zM120 1563.5q-3 31.5 13 54.5q18 23 50 23.5t57 -21.5l143 -123q29 -23 34 -55.5t-14 -55.5q-18 -23 -49.5 -21.5 t-60.5 24.5l-143 120q-27 23 -30 54.5z" />
<glyph unicode="&#xcd;" horiz-adv-x="407" d="M-6 115l176 1001q8 47 46 80t85 33t74.5 -33t19.5 -80q-35 -188 -59.5 -330.5t-43 -249t-31.5 -178t-21 -118.5q-20 -111 -23 -127q-8 -47 -46 -80t-85 -33t-73.5 34t-18.5 81zM201 1440q6 33 35 55l143 123q25 23 56.5 22t49.5 -24q16 -23 13.5 -54.5t-29.5 -54.5 l-143 -121q-29 -23 -61 -23.5t-50 21.5q-20 23 -14 56z" />
<glyph unicode="&#xce;" horiz-adv-x="407" d="M-6 115l176 1001q8 47 46 80t85 33t74.5 -33t19.5 -80q-35 -188 -59.5 -330.5t-43 -249t-31.5 -178t-21 -118.5q-20 -111 -23 -127q-8 -47 -46 -80t-85 -33t-73.5 34t-18.5 81zM85 1442q11 33 44 55q63 47 98 73.5t54 39.5q20 14 26 18q14 10 41 10q12 0 23.5 -2t19.5 -8 l131 -131q23 -23 24 -55.5t-22 -55.5t-55.5 -21.5t-54.5 24.5l-92 90l-123 -90q-31 -23 -63 -24t-48 21q-14 23 -3 56z" />
<glyph unicode="&#xcf;" horiz-adv-x="407" d="M-6 115q-8 -47 18.5 -81t73.5 -34t85 33t46 80q2 16 23 127q8 47 21 118.5t31.5 178t43 249t59.5 330.5q8 47 -19.5 80t-74.5 33t-85 -33t-46 -80zM154 1556q6 33 32.5 57.5t59.5 24.5t51 -22t12 -55t-32.5 -58.5t-59.5 -25.5t-51.5 23.5t-11.5 55.5zM385 1556 q-6 -33 12.5 -56t51.5 -23t59.5 25.5t32.5 58.5t-12.5 55t-51.5 22t-59.5 -24.5t-32.5 -57.5z" />
<glyph unicode="&#xd0;" horiz-adv-x="1175" d="M51 387l80 457q33 180 163 282.5t370 102.5q72 0 129 -10.5t104 -28.5l8 49q8 47 4 87t-25.5 68.5t-65.5 44t-116 15.5h-192q-39 0 -61.5 26.5t-14.5 65.5q6 39 38 65.5t71 26.5h194q238 0 332 -103t64 -282l-103 -583h90q39 0 61.5 -27t14.5 -65q-6 -39 -38 -66t-71 -27 h-90l-16 -96q-33 -180 -164 -284.5t-368 -104.5q-240 0 -334.5 104.5t-63.5 282.5zM273.5 312q2.5 -40 25.5 -68.5t67 -44t115 -15.5q137 0 198.5 60.5t78.5 156.5l14 84h-92q-37 0 -59.5 27t-16.5 66q8 39 39 65.5t70 26.5h92l29 159q8 47 4 87t-27 69t-66 44t-112 15 q-72 0 -122 -15t-82 -44t-49.5 -68.5t-25.5 -87.5l-75 -428q-8 -49 -5.5 -89z" />
<glyph unicode="&#xd1;" horiz-adv-x="1107" d="M8 113q-8 -47 18.5 -80t73.5 -33t85 33t48 80l125 714q8 49 25.5 89t50.5 69t82 44t121 15q70 0 114 -15t66.5 -44t26.5 -68.5t-4 -89.5l-127 -714q-8 -47 18.5 -80t73.5 -33t85 33t48 80l127 727q33 178 -62 283.5t-333 105.5t-370 -105.5t-163 -281.5zM498.5 1548 q9.5 21 23.5 35q23 23 56.5 39t68.5 16q27 0 47.5 -9t37 -20.5t29.5 -20.5t27 -9q29 0 50 20q16 14 36.5 17.5t32.5 -12.5q16 -20 8 -39t-24 -33q-23 -23 -55.5 -39t-67.5 -16q-29 0 -49.5 9t-36.5 20.5t-29.5 20.5t-25.5 9q-16 0 -30.5 -8t-25.5 -19q-31 -25 -59 0 q-23 18 -13.5 39z" />
<glyph unicode="&#xd2;" horiz-adv-x="1083" d="M25 385l79 457q33 176 164 281.5t371 105.5q236 0 331 -105.5t62 -283.5l-80 -453v-2q-31 -174 -163 -279.5t-369 -105.5q-238 0 -333 103.5t-62 281.5zM248 312q4 -40 25.5 -68.5t65.5 -44t116 -15.5q139 0 199.5 59.5t76.5 155.5l76 428q8 49 4 89t-26.5 69t-65.5 44 t-113 15q-72 0 -121 -15t-81.5 -44t-50 -68.5t-25.5 -89.5l-76 -428q-8 -47 -4 -87zM453.5 1563.5q-2.5 31.5 13.5 54.5q18 23 50 23.5t56 -21.5l144 -123q29 -23 34 -55.5t-14 -55.5q-18 -23 -50 -21.5t-60 24.5l-144 120q-27 23 -29.5 54.5z" />
<glyph unicode="&#xd3;" horiz-adv-x="1083" d="M25 385l79 457q33 176 164 281.5t371 105.5q236 0 331 -105.5t62 -283.5l-80 -453v-2q-31 -174 -163 -279.5t-369 -105.5q-238 0 -333 103.5t-62 281.5zM248 312q4 -40 25.5 -68.5t65.5 -44t116 -15.5q139 0 199.5 59.5t76.5 155.5l76 428q8 49 4 89t-26.5 69t-65.5 44 t-113 15q-72 0 -121 -15t-81.5 -44t-50 -68.5t-25.5 -89.5l-76 -428q-8 -47 -4 -87zM516 1440q6 33 35 55l143 123q25 23 57 22t50 -24q16 -23 13 -54.5t-30 -54.5l-143 -121q-29 -23 -60.5 -23.5t-50.5 21.5q-20 23 -14 56z" />
<glyph unicode="&#xd4;" horiz-adv-x="1083" d="M25 385l79 457q33 176 164 281.5t371 105.5q236 0 331 -105.5t62 -283.5l-80 -453v-2q-31 -174 -163 -279.5t-369 -105.5q-238 0 -333 103.5t-62 281.5zM248 312q4 -40 25.5 -68.5t65.5 -44t116 -15.5q139 0 199.5 59.5t76.5 155.5l76 428q8 49 4 89t-26.5 69t-65.5 44 t-113 15q-72 0 -121 -15t-81.5 -44t-50 -68.5t-25.5 -89.5l-76 -428q-8 -47 -4 -87zM403 1442q11 33 43 55q63 47 98.5 73.5t53.5 39.5q20 14 27 18q14 10 41 10q12 0 23 -2t20 -8l131 -131q23 -23 23.5 -55.5t-21.5 -55.5q-23 -23 -55.5 -21.5t-55.5 24.5l-92 90l-123 -90 q-31 -23 -62.5 -24t-47.5 21q-14 23 -3 56z" />
<glyph unicode="&#xd5;" horiz-adv-x="1083" d="M25 385l79 457q33 176 164 281.5t371 105.5q236 0 331 -105.5t62 -283.5l-80 -453v-2q-31 -174 -163 -279.5t-369 -105.5q-238 0 -333 103.5t-62 281.5zM248 312q4 -40 25.5 -68.5t65.5 -44t116 -15.5q139 0 199.5 59.5t76.5 155.5l76 428q8 49 4 89t-26.5 69t-65.5 44 t-113 15q-72 0 -121 -15t-81.5 -44t-50 -68.5t-25.5 -89.5l-76 -428q-8 -47 -4 -87zM471.5 1548q9.5 21 24.5 35q23 23 56.5 39t68.5 16q27 0 47 -9t36.5 -20.5t30 -20.5t27.5 -9q29 0 49 20q16 14 36.5 17.5t33.5 -12.5q16 -20 7.5 -39t-24.5 -33q-23 -23 -55.5 -39 t-67.5 -16q-29 0 -49 9t-36.5 20.5t-30 20.5t-25.5 9q-16 0 -30.5 -8t-24.5 -19q-31 -25 -60 0q-23 18 -13.5 39z" />
<glyph unicode="&#xd6;" horiz-adv-x="1083" d="M25 385l79 457q33 176 164 281.5t371 105.5q236 0 331 -105.5t62 -283.5l-80 -453v-2q-31 -174 -163 -279.5t-369 -105.5q-238 0 -333 103.5t-62 281.5zM248 312q4 -40 25.5 -68.5t65.5 -44t116 -15.5q139 0 199.5 59.5t76.5 155.5l76 428q8 49 4 89t-26.5 69t-65.5 44 t-113 15q-72 0 -121 -15t-81.5 -44t-50 -68.5t-25.5 -89.5l-76 -428q-8 -47 -4 -87zM483 1556q6 33 33 57.5t59 24.5q33 0 51.5 -22t12.5 -55t-32.5 -58.5t-59.5 -25.5t-51.5 23.5t-12.5 55.5zM715 1556q-6 -33 12 -56t51 -23t59.5 25.5t32.5 58.5t-12 55t-51 22 t-59.5 -24.5t-32.5 -57.5z" />
<glyph unicode="&#xd7;" horiz-adv-x="1046" d="M53 604q8 41 40 68.5t73 27.5h749q41 0 63.5 -27.5t14.5 -68.5q-6 -39 -38.5 -66.5t-73.5 -27.5h-748q-41 0 -64.5 27.5t-15.5 66.5zM356 276l2 9q8 47 45 78.5t84 31.5q45 0 72 -31.5t16 -78.5v-9q-10 -45 -46.5 -77.5t-82.5 -32.5q-45 0 -71.5 32.5t-18.5 77.5z M471 926l2 6q8 47 45 79.5t84 32.5q45 0 70.5 -32.5t17.5 -79.5v-6q-10 -47 -47 -79t-82 -32q-47 0 -72.5 32t-17.5 79z" />
<glyph unicode="&#xd8;" horiz-adv-x="1105" d="M-31 -57.5q-4 37.5 23 69.5l90 123q-63 94 -35 250l80 455q31 178 162 283.5t370 105.5q129 0 222 -35l86 115q25 33 63.5 43t67.5 -11q31 -18 34 -55t-22 -69l-94 -125q35 -49 43 -113t-4 -139l-80 -455q-31 -176 -163 -280.5t-370 -104.5q-68 0 -123 8t-100 25 l-84 -113q-27 -33 -64.5 -43t-68.5 10q-29 18 -33 55.5zM268 383l486 641q-25 10 -55.5 15t-71.5 5q-72 0 -121 -15t-82 -44t-50.5 -68.5t-25.5 -89.5l-76 -428q-2 -4 -2 -8t-2 -8zM348 205q43 -20 127 -21q139 0 199.5 59.5t77.5 155.5l75 428q0 4 1 8.5t1 8.5z" />
<glyph unicode="&#xd9;" horiz-adv-x="1150" d="M61 385q-31 -178 64.5 -281.5t333.5 -103.5t370 105.5t162 279.5l129 731q8 47 -18.5 80t-73.5 33t-85 -33t-48 -80q-12 -72 -21.5 -123t-16.5 -95t-15 -87t-17.5 -98.5t-23 -131t-31.5 -182.5q-16 -96 -77.5 -155.5t-200.5 -59.5q-72 0 -116 15.5t-65.5 44t-25.5 68.5 t4 87q18 106 31.5 182t23.5 131.5t17.5 98.5t15.5 87t17 95t22 123q8 47 -18.5 80t-73.5 33t-85 -33t-49 -80zM505 1563.5q-3 31.5 13 54.5q18 23 50 23.5t57 -21.5l143 -123q29 -23 34 -55.5t-14 -55.5q-18 -23 -49.5 -21.5t-60.5 24.5l-143 120q-27 23 -30 54.5z" />
<glyph unicode="&#xda;" horiz-adv-x="1150" d="M61 385l129 731q10 47 48 80t86 33q47 0 73.5 -33t18.5 -80q-12 -72 -21.5 -123t-17.5 -95t-15.5 -87t-17.5 -98.5t-23.5 -131t-31.5 -182.5q-8 -47 -4 -87t25.5 -68.5t65.5 -44t116 -15.5q139 0 200.5 59.5t77.5 155.5q18 106 31.5 182t23 131.5t17.5 98.5t15 87 t16.5 95t21.5 123q10 47 48 80t85 33t73.5 -33t18.5 -80l-129 -731q-31 -174 -163 -279.5t-369 -105.5q-238 0 -333 103.5t-65 281.5zM567.5 1440q5.5 33 34.5 55l143 123q25 23 57 22t50 -24q16 -23 13 -54.5t-29 -54.5l-144 -121q-29 -23 -60.5 -23.5t-49.5 21.5 q-20 23 -14.5 56z" />
<glyph unicode="&#xdb;" horiz-adv-x="1150" d="M61 385l129 731q10 47 48 80t86 33q47 0 73.5 -33t18.5 -80q-12 -72 -21.5 -123t-17.5 -95t-15.5 -87t-17.5 -98.5t-23.5 -131t-31.5 -182.5q-8 -47 -4 -87t25.5 -68.5t65.5 -44t116 -15.5q139 0 200.5 59.5t77.5 155.5q18 106 31.5 182t23 131.5t17.5 98.5t15 87 t16.5 95t21.5 123q10 47 48 80t85 33t73.5 -33t18.5 -80l-129 -731q-31 -174 -163 -279.5t-369 -105.5q-238 0 -333 103.5t-65 281.5zM454 1442q11 33 44 55q63 47 98 73.5t53 39.5q20 14 27 18q14 10 41 10q12 0 23.5 -2t19.5 -8l131 -131q23 -23 23.5 -55.5t-21.5 -55.5 q-23 -23 -55.5 -21.5t-55.5 24.5l-92 90l-123 -90q-31 -23 -62.5 -24t-47.5 21q-14 23 -3 56z" />
<glyph unicode="&#xdc;" horiz-adv-x="1150" d="M61 385q-31 -178 64.5 -281.5t333.5 -103.5t370 105.5t162 279.5l129 731q8 47 -18.5 80t-73.5 33t-85 -33t-48 -80q-12 -72 -21.5 -123t-16.5 -95t-15 -87t-17.5 -98.5t-23 -131t-31.5 -182.5q-16 -96 -77.5 -155.5t-200.5 -59.5q-72 0 -116 15.5t-65.5 44t-25.5 68.5 t4 87q18 106 31.5 182t23.5 131.5t17.5 98.5t15.5 87t17 95t22 123q8 47 -18.5 80t-73.5 33t-85 -33t-49 -80zM494 1556q6 33 32.5 57.5t59.5 24.5t51 -22t12 -55t-32.5 -58.5t-59.5 -25.5t-51.5 23.5t-11.5 55.5zM725 1556q-6 -33 12.5 -56t50.5 -23q33 0 59.5 25.5 t33.5 58.5q6 33 -12.5 55t-51.5 22t-59.5 -24.5t-32.5 -57.5z" />
<glyph unicode="&#xdd;" horiz-adv-x="974" d="M109 1096q-4 29 3 59.5t44 52.5q35 20 62.5 18.5t43.5 -14.5q20 -14 33 -38l194 -379q78 94 142 172q27 33 53.5 65.5t48 59t36.5 45t19 24.5q12 14 32 31.5t44.5 27t52 8.5t56.5 -24t34 -48.5t-3 -45.5q-8 -25 -31 -47l-404 -473l-82 -459q-6 -37 -22 -65 q-14 -25 -42 -45.5t-73 -20.5t-64.5 18.5t-25.5 40.5q-8 27 0 62l86 469l-213 436q-18 35 -24 70zM498 1440q6 33 34 55l144 123q25 23 56.5 22t49.5 -24q16 -23 13.5 -54.5t-29.5 -54.5l-143 -121q-29 -23 -61 -23.5t-50 21.5q-20 23 -14 56z" />
<glyph unicode="&#xdf;" horiz-adv-x="974" d="M109 1096q6 -35 24 -70l213 -436l-86 -469q-8 -35 0 -62q6 -23 25.5 -41t64.5 -18t73 20.5t42 45.5q16 29 22 65l82 459l404 473q23 23 31 47q8 20 2.5 46t-33.5 48q-29 23 -56.5 24t-52 -8.5t-44 -26.5t-32.5 -32q-4 -6 -19 -24.5t-36.5 -45t-48.5 -59.5t-53 -65 q-63 -78 -142 -172l-194 379q-12 25 -33 38q-16 12 -44 14.5t-62 -18.5q-37 -23 -44.5 -53.5t-2.5 -58.5zM420 1556q6 33 32.5 57.5t59.5 24.5t51 -22t12 -55t-32.5 -58.5t-59.5 -25.5t-51 23.5t-12 55.5zM651 1556q-6 -33 12.5 -56t51.5 -23t59.5 25.5t32.5 58.5t-12.5 55 t-51.5 22t-59.5 -24.5t-32.5 -57.5z" />
<glyph unicode="&#xe0;" horiz-adv-x="1079" d="M-18 113l127 729q33 176 163.5 281.5t370.5 105.5q236 0 331 -105.5t64 -283.5l-129 -727q-8 -47 -46 -80t-85 -33t-74.5 33t-17.5 80l66 372h-480l-67 -372q-8 -47 -46 -80t-85 -33t-75 33t-17 80zM303 670h481l27 157q8 49 4 89t-26.5 69t-65.5 44t-113 15 q-72 0 -121 -15t-81.5 -44t-50 -68.5t-25.5 -89.5zM508 1559q4 35 32.5 57t63.5 22h180q33 -2 51.5 -24.5t12.5 -54.5q-6 -33 -33 -57.5t-59 -24.5h-181q-35 0 -54 23.5t-13 58.5z" />
<glyph unicode="&#xe1;" horiz-adv-x="1079" d="M-18 113l127 729q33 176 163.5 281.5t370.5 105.5q236 0 331 -105.5t64 -283.5l-129 -727q-8 -47 -46 -80t-85 -33t-74.5 33t-17.5 80l66 372h-480l-67 -372q-8 -47 -46 -80t-85 -33t-75 33t-17 80zM303 670h481l27 157q8 49 4 89t-26.5 69t-65.5 44t-113 15 q-72 0 -121 -15t-81.5 -44t-50 -68.5t-25.5 -89.5zM508 1559q4 35 32.5 57t63.5 22h180q33 -2 51.5 -24.5t12.5 -54.5q-6 -33 -33 -57.5t-59 -24.5h-181q-35 0 -54 23.5t-13 58.5z" />
<glyph unicode="&#xe2;" horiz-adv-x="1079" d="M-18 113q-10 -47 17.5 -80t74.5 -33t85 33t46 80l67 372h480l-66 -372q-10 -47 17.5 -80t74.5 -33t85 33t46 80l129 727q31 178 -64 283.5t-331 105.5q-240 0 -371 -105.5t-163 -281.5zM303 670l29 157q8 49 25.5 89t50 69t82 44t120.5 15q70 0 113 -15t65.5 -44 t26.5 -68.5t-4 -89.5l-27 -157h-481zM461 1567q6 29 30.5 50t53.5 21q31 0 48 -21.5t11 -49.5q-6 -35 14.5 -59.5t55.5 -24.5t64.5 24.5t35.5 59.5q4 29 29.5 50t54.5 21q31 0 47.5 -21t12.5 -50q-8 -47 -34 -89t-62 -73t-81 -49.5t-92 -18.5t-86 18.5t-64.5 49.5t-35.5 73 t-2 89z" />
<glyph unicode="&#xe3;" horiz-adv-x="1079" d="M-18 113q-10 -47 17.5 -80t74.5 -33t85 33t46 80l67 372h480l-66 -372q-10 -47 17.5 -80t74.5 -33t85 33t46 80l129 727q31 178 -64 283.5t-331 105.5q-240 0 -371 -105.5t-163 -281.5zM303 670l29 157q8 49 25.5 89t50 69t82 44t120.5 15q70 0 113 -15t65.5 -44 t26.5 -68.5t-4 -89.5l-27 -157h-481zM461 1567q6 29 30.5 50t53.5 21q31 0 48 -21.5t11 -49.5q-6 -35 14.5 -59.5t55.5 -24.5t64.5 24.5t35.5 59.5q4 29 29.5 50t54.5 21q31 0 47.5 -21t12.5 -50q-8 -47 -34 -89t-62 -73t-81 -49.5t-92 -18.5t-86 18.5t-64.5 49.5t-35.5 73 t-2 89z" />
<glyph unicode="&#xe4;" horiz-adv-x="1079" d="M-20 111l129 729q31 178 161.5 283.5t370.5 105.5q238 0 333 -105.5t62 -285.5l-129 -727q-8 -47 -46 -79t-85 -32h-8q-31 -4 -55.5 -27.5t-30.5 -56.5q-6 -35 14.5 -59.5t55.5 -24.5q31 0 48 -21.5t11 -50.5q-4 -31 -29.5 -51t-54.5 -22q-47 0 -86 18.5t-64.5 49 t-36 72.5t-1.5 89q10 63 50 114.5t95 82.5l66 370h-480l-65 -372q-10 -47 -48 -79t-85 -32t-74 31.5t-18 79.5zM303 670h479l27 157q8 47 4 87t-26.5 69t-65.5 45t-113 16q-72 0 -121 -16t-81.5 -45t-50 -69t-25.5 -87z" />
<glyph unicode="&#xe5;" horiz-adv-x="1079" d="M-20 111l129 729q31 178 161.5 283.5t370.5 105.5q238 0 333 -105.5t62 -285.5l-129 -727q-8 -47 -46 -79t-85 -32h-8q-31 -4 -55.5 -27.5t-30.5 -56.5q-6 -35 14.5 -59.5t55.5 -24.5q31 0 48 -21.5t11 -50.5q-4 -31 -29.5 -51t-54.5 -22q-47 0 -86 18.5t-64.5 49 t-36 72.5t-1.5 89q10 63 50 114.5t95 82.5l66 370h-480l-65 -372q-10 -47 -48 -79t-85 -32t-74 31.5t-18 79.5zM303 670h479l27 157q8 47 4 87t-26.5 69t-65.5 45t-113 16q-72 0 -121 -16t-81.5 -45t-50 -69t-25.5 -87z" />
<glyph unicode="&#xe6;" horiz-adv-x="993" d="M42 260q-5 78 17 207l68 383q8 43 29.5 106.5t74 122t146.5 101.5t246 49q45 2 96 -2q43 -4 94 -13.5t105 -29.5q51 -18 62 -56t-4 -73t-52 -55.5t-80 -4.5q-72 25 -119 34t-94 11q-23 0 -64 -4t-84 -26.5t-80.5 -68.5t-52.5 -132q-16 -86 -29.5 -163t-23.5 -136 q-12 -68 -23 -127q-10 -55 9 -96q16 -37 61 -67t150 -30q16 0 58 3.5t69 9.5q14 2 36.5 9t46 10t46 2t34.5 -13t21.5 -34.5t6.5 -47.5t-23.5 -49.5t-69.5 -40.5q-49 -18 -119 -27.5t-142.5 -10.5t-138 7t-106.5 25q-41 16 -79 37.5t-62.5 66.5t-29.5 123zM510 1440 q6 33 35 55l143 123q25 23 57 22t50 -24q16 -23 13 -54.5t-30 -54.5l-143 -121q-29 -23 -60.5 -23.5t-50.5 21.5q-20 23 -14 56z" />
<glyph unicode="&#xe7;" horiz-adv-x="993" d="M42 260q-5 78 17 207l68 383q8 43 29.5 106.5t74 122t146.5 101.5t246 49q45 2 96 -2q43 -4 94 -13.5t105 -29.5q51 -18 62 -56t-4 -73t-52 -55.5t-80 -4.5q-72 25 -119 34t-94 11q-23 0 -64 -4t-84 -26.5t-80.5 -68.5t-52.5 -132q-16 -86 -29.5 -163t-23.5 -136 q-12 -68 -23 -127q-10 -55 9 -96q16 -37 61 -67t150 -30q16 0 58 3.5t69 9.5q14 2 36.5 9t46 10t46 2t34.5 -13t21.5 -34.5t6.5 -47.5t-23.5 -49.5t-69.5 -40.5q-49 -18 -119 -27.5t-142.5 -10.5t-138 7t-106.5 25q-41 16 -79 37.5t-62.5 66.5t-29.5 123zM510 1440 q6 33 35 55l143 123q25 23 57 22t50 -24q16 -23 13 -54.5t-30 -54.5l-143 -121q-29 -23 -60.5 -23.5t-50.5 21.5q-20 23 -14 56z" />
<glyph unicode="&#xe8;" horiz-adv-x="993" d="M42 260q-5 78 17 207l68 383q8 43 29.5 106.5t74 122t146.5 101.5t246 49q45 2 96 -2q43 -4 94 -13.5t105 -29.5q51 -18 62 -56t-4 -73t-52 -55.5t-80 -4.5q-72 25 -119 34t-94 11q-23 0 -64 -4t-84 -26.5t-80.5 -68.5t-52.5 -132q-16 -86 -29.5 -163t-23.5 -136 q-12 -68 -23 -127q-10 -55 9 -96q16 -37 61 -67t150 -30q16 0 58 3.5t69 9.5q14 2 36.5 9t46 10t46 2t34.5 -13t21.5 -34.5t6.5 -47.5t-23.5 -49.5t-69.5 -40.5q-49 -18 -119 -27.5t-142.5 -10.5t-138 7t-106.5 25q-41 16 -79 37.5t-62.5 66.5t-29.5 123zM403 1442 q11 33 43 55q63 47 98.5 73.5t53.5 39.5q20 14 27 18q14 10 41 10q12 0 23 -2t20 -8l131 -131q23 -23 23.5 -55.5t-21.5 -55.5q-23 -23 -55.5 -21.5t-55.5 24.5l-92 90l-123 -90q-31 -23 -62.5 -24t-47.5 21q-14 23 -3 56z" />
<glyph unicode="&#xe9;" horiz-adv-x="993" d="M42 260q-5 78 17 207l68 383q8 43 29.5 106.5t74 122t146.5 101.5t246 49q45 2 96 -2q43 -4 94 -13.5t105 -29.5q51 -18 62 -56t-4 -73t-52 -55.5t-80 -4.5q-72 25 -119 34t-94 11q-23 0 -64 -4t-84 -26.5t-80.5 -68.5t-52.5 -132q-16 -86 -29.5 -163t-23.5 -136 q-12 -68 -23 -127q-10 -55 9 -96q16 -37 61 -67t150 -30q16 0 58 3.5t69 9.5q14 2 36.5 9t46 10t46 2t34.5 -13t21.5 -34.5t6.5 -47.5t-23.5 -49.5t-69.5 -40.5q-49 -18 -119 -27.5t-142.5 -10.5t-138 7t-106.5 25q-41 16 -79 37.5t-62.5 66.5t-29.5 123zM403 1442 q11 33 43 55q63 47 98.5 73.5t53.5 39.5q20 14 27 18q14 10 41 10q12 0 23 -2t20 -8l131 -131q23 -23 23.5 -55.5t-21.5 -55.5q-23 -23 -55.5 -21.5t-55.5 24.5l-92 90l-123 -90q-31 -23 -62.5 -24t-47.5 21q-14 23 -3 56z" />
<glyph unicode="&#xea;" horiz-adv-x="993" d="M42 260q-5 78 17 207l68 383q8 43 29.5 106.5t74 122t146.5 101.5t246 49q45 2 96 -2q43 -4 94 -13.5t105 -29.5q51 -18 62 -56t-4 -73t-52 -55.5t-80 -4.5q-72 25 -119 34t-94 11q-23 0 -64 -4t-84 -26.5t-80.5 -68.5t-52.5 -132q-16 -86 -29.5 -163t-23.5 -136 q-12 -68 -23 -127q-10 -55 9 -96q16 -37 61 -67t150 -30q16 0 58 3.5t69 9.5q14 2 36.5 9t46 10t46 2t34.5 -13t21.5 -34.5t6.5 -47.5t-23.5 -49.5t-69.5 -40.5q-49 -18 -119 -27.5t-142.5 -10.5t-138 7t-106.5 25q-41 16 -79 37.5t-62.5 66.5t-29.5 123zM582 1556 q4 33 31.5 57.5t60.5 24.5t50 -22t13 -55q-6 -33 -32.5 -58.5t-59.5 -25.5t-51.5 23.5t-11.5 55.5z" />
<glyph unicode="&#xeb;" horiz-adv-x="993" d="M42 260q-5 78 17 207l68 383q8 43 29.5 106.5t74 122t146.5 101.5t246 49q45 2 96 -2q43 -4 94 -13.5t105 -29.5q51 -18 62 -56t-4 -73t-52 -55.5t-80 -4.5q-72 25 -119 34t-94 11q-23 0 -64 -4t-84 -26.5t-80.5 -68.5t-52.5 -132q-16 -86 -29.5 -163t-23.5 -136 q-12 -68 -23 -127q-10 -55 9 -96q16 -37 61 -67t150 -30q16 0 58 3.5t69 9.5q14 2 36.5 9t46 10t46 2t34.5 -13t21.5 -34.5t6.5 -47.5t-23.5 -49.5t-69.5 -40.5q-49 -18 -119 -27.5t-142.5 -10.5t-138 7t-106.5 25q-41 16 -79 37.5t-62.5 66.5t-29.5 123zM582 1556 q4 33 31.5 57.5t60.5 24.5t50 -22t13 -55q-6 -33 -32.5 -58.5t-59.5 -25.5t-51.5 23.5t-11.5 55.5z" />
<glyph unicode="&#xec;" horiz-adv-x="993" d="M42 260q-5 78 17 207l68 383q8 43 29.5 106.5t74 122t146.5 101.5t246 49q45 2 96 -2q43 -4 94 -13.5t105 -29.5q51 -18 62 -56t-4 -73t-52 -55.5t-80 -4.5q-72 25 -119 34t-94 11q-23 0 -64 -4t-84 -26.5t-80.5 -68.5t-52.5 -132q-16 -86 -29.5 -163t-23.5 -136 q-12 -68 -23 -127q-10 -55 9 -96q16 -37 61 -67t150 -30q16 0 58 3.5t69 9.5q14 2 36.5 9t46 10t46 2t34.5 -13t21.5 -34.5t6.5 -47.5t-23.5 -49.5t-69.5 -40.5q-49 -18 -119 -27.5t-142.5 -10.5t-138 7t-106.5 25q-41 16 -79 37.5t-62.5 66.5t-29.5 123zM436 1562.5 q0 32.5 23 55.5t55.5 21.5t54.5 -23.5l90 -90l123 90q31 23 64 23.5t47 -21.5q16 -23 9 -54.5t-40 -54.5l-174 -125q-12 -10 -25.5 -15t-31.5 -5q-27 0 -49 20l-123 121q-23 25 -23 57.5z" />
<glyph unicode="&#xed;" horiz-adv-x="993" d="M42 260q-5 78 17 207l68 383q8 43 29.5 106.5t74 122t146.5 101.5t246 49q45 2 96 -2q43 -4 94 -13.5t105 -29.5q51 -18 62 -56t-4 -73t-52 -55.5t-80 -4.5q-72 25 -119 34t-94 11q-23 0 -64 -4t-84 -26.5t-80.5 -68.5t-52.5 -132q-16 -86 -29.5 -163t-23.5 -136 q-12 -68 -23 -127q-10 -55 9 -96q16 -37 61 -67t150 -30q16 0 58 3.5t69 9.5q14 2 36.5 9t46 10t46 2t34.5 -13t21.5 -34.5t6.5 -47.5t-23.5 -49.5t-69.5 -40.5q-49 -18 -119 -27.5t-142.5 -10.5t-138 7t-106.5 25q-41 16 -79 37.5t-62.5 66.5t-29.5 123zM436 1562.5 q0 32.5 23 55.5t55.5 21.5t54.5 -23.5l90 -90l123 90q31 23 64 23.5t47 -21.5q16 -23 9 -54.5t-40 -54.5l-174 -125q-12 -10 -25.5 -15t-31.5 -5q-27 0 -49 20l-123 121q-23 25 -23 57.5z" />
<glyph unicode="&#xee;" horiz-adv-x="1120" d="M49 385l80 455q31 178 163 283.5t370 105.5q143 0 233 -39l59 336q8 47 46 79.5t85 32.5t75 -32.5t20 -79.5l-203 -1141q-31 -180 -161 -282.5t-370 -102.5q-238 0 -333 105.5t-64 279.5zM272 312q4 -40 27 -68.5t66 -44t112 -15.5q72 0 121 15.5t81 44t50.5 68.5 t26.5 87l75 428q8 49 4 89t-25.5 69t-65.5 44t-115 15q-70 0 -118 -15t-81 -44t-51.5 -68.5t-26.5 -89.5l-76 -428q-8 -47 -4 -87zM407.5 1562.5q0.5 32.5 22.5 55.5q23 23 55.5 21.5t55.5 -23.5l90 -90l123 90q31 23 63.5 23.5t46.5 -21.5q16 -23 9 -54.5t-39 -54.5 l-175 -125q-12 -10 -25 -15t-32 -5q-27 0 -49 20l-123 121q-23 25 -22.5 57.5z" />
<glyph unicode="&#xef;" horiz-adv-x="1120" d="M49 385l80 455q31 178 163 283.5t370 105.5q143 0 233 -39l59 336q8 47 46 79.5t85 32.5t75 -32.5t20 -79.5l-203 -1141q-31 -180 -161 -282.5t-370 -102.5q-238 0 -333 105.5t-64 279.5zM272 312q4 -40 27 -68.5t66 -44t112 -15.5q72 0 121 15.5t81 44t50.5 68.5 t26.5 87l75 428q8 49 4 89t-25.5 69t-65.5 44t-115 15q-70 0 -118 -15t-81 -44t-51.5 -68.5t-26.5 -89.5l-76 -428q-8 -47 -4 -87zM407.5 1562.5q0.5 32.5 22.5 55.5q23 23 55.5 21.5t55.5 -23.5l90 -90l123 90q31 23 63.5 23.5t46.5 -21.5q16 -23 9 -54.5t-39 -54.5 l-175 -125q-12 -10 -25 -15t-32 -5q-27 0 -49 20l-123 121q-23 25 -22.5 57.5z" />
<glyph unicode="&#xf0;" horiz-adv-x="1122" d="M49 385l80 453q33 180 164 285.5t369 105.5q72 0 130 -10.5t105 -28.5l18 106h-77q-35 0 -54.5 22.5t-13.5 57.5t33.5 58.5t62.5 23.5h78l12 68q8 47 46 79.5t85 32.5t74 -32.5t19 -79.5l-13 -68h72q35 0 52.5 -24.5t11.5 -57.5t-33 -56.5t-60 -23.5h-71l-160 -911 q-33 -180 -163 -282.5t-370 -102.5q-119 0 -200.5 27.5t-130.5 78t-65.5 121t-0.5 158.5zM272 312q4 -40 27 -68.5t67 -44t113 -15.5q72 0 121 15.5t81 44t50.5 68.5t26.5 87l73 428q8 47 5.5 87t-25.5 69t-66 44t-114 15q-70 0 -119 -15t-82 -44t-51.5 -69t-26.5 -87 l-76 -428q-8 -47 -4 -87z" />
<glyph unicode="&#xf1;" horiz-adv-x="1122" d="M49 385l80 453q33 180 164 285.5t369 105.5q72 0 130 -10.5t105 -28.5l18 106h-77q-35 0 -54.5 22.5t-13.5 57.5t33.5 58.5t62.5 23.5h78l12 68q8 47 46 79.5t85 32.5t74 -32.5t19 -79.5l-13 -68h72q35 0 52.5 -24.5t11.5 -57.5t-33 -56.5t-60 -23.5h-71l-160 -911 q-33 -180 -163 -282.5t-370 -102.5q-119 0 -200.5 27.5t-130.5 78t-65.5 121t-0.5 158.5zM272 312q4 -40 27 -68.5t67 -44t113 -15.5q72 0 121 15.5t81 44t50.5 68.5t26.5 87l73 428q8 47 5.5 87t-25.5 69t-66 44t-114 15q-70 0 -119 -15t-82 -44t-51.5 -69t-26.5 -87 l-76 -428q-8 -47 -4 -87z" />
<glyph unicode="&#xf2;" d="M31 385l80 457q33 176 163.5 281.5t370.5 105.5q236 0 331 -105.5t64 -283.5l-47 -262q-6 -39 -37.5 -66t-70.5 -27h-611l-16 -86q-8 -47 -4 -87t25.5 -68.5t65.5 -44t116 -15.5h370q37 0 60.5 -25.5t17.5 -66.5q-8 -39 -39.5 -65.5t-68.5 -26.5h-375q-238 0 -332 103.5 t-63 281.5zM305 670h481l27 157q8 49 4 89t-26.5 69t-65.5 44t-113 15q-72 0 -121 -15t-81.5 -44t-50 -68.5t-25.5 -89.5zM485 1559q4 35 33 57t64 22h180q33 -2 51 -24.5t12 -54.5q-6 -33 -32.5 -57.5t-59.5 -24.5h-180q-35 0 -54.5 23.5t-13.5 58.5z" />
<glyph unicode="&#xf3;" d="M31 385l80 457q33 176 163.5 281.5t370.5 105.5q236 0 331 -105.5t64 -283.5l-47 -262q-6 -39 -37.5 -66t-70.5 -27h-611l-16 -86q-8 -47 -4 -87t25.5 -68.5t65.5 -44t116 -15.5h370q37 0 60.5 -25.5t17.5 -66.5q-8 -39 -39.5 -65.5t-68.5 -26.5h-375q-238 0 -332 103.5 t-63 281.5zM305 670h481l27 157q8 49 4 89t-26.5 69t-65.5 44t-113 15q-72 0 -121 -15t-81.5 -44t-50 -68.5t-25.5 -89.5zM485 1559q4 35 33 57t64 22h180q33 -2 51 -24.5t12 -54.5q-6 -33 -32.5 -57.5t-59.5 -24.5h-180q-35 0 -54.5 23.5t-13.5 58.5z" />
<glyph unicode="&#xf4;" d="M31 385q-31 -178 63 -281.5t332 -103.5h375q37 0 68.5 26.5t39.5 65.5q6 41 -17.5 66.5t-60.5 25.5h-370q-72 0 -116 15.5t-65.5 44t-25.5 68.5t4 87l16 86h611q39 0 70.5 27t37.5 66l47 262q31 178 -64 283.5t-331 105.5q-240 0 -371 -105.5t-163 -281.5zM305 670 l29 157q8 49 25.5 89t50 69t82 44t120.5 15q70 0 113 -15t65.5 -44t26.5 -68.5t-4 -89.5l-27 -157h-481zM469 1567q6 29 30.5 50t53.5 21q31 0 48 -21.5t11 -49.5q-6 -35 14.5 -59.5t55.5 -24.5t64.5 24.5t35.5 59.5q4 29 30 50t54 21q31 0 47.5 -21t12.5 -50 q-8 -47 -34 -89t-61.5 -73t-80.5 -49.5t-93 -18.5q-47 0 -86 18.5t-64.5 49.5t-35.5 73t-2 89z" />
<glyph unicode="&#xf5;" d="M31 385q-31 -178 63 -281.5t332 -103.5h375q37 0 68.5 26.5t39.5 65.5q6 41 -17.5 66.5t-60.5 25.5h-370q-72 0 -116 15.5t-65.5 44t-25.5 68.5t4 87l16 86h611q39 0 70.5 27t37.5 66l47 262q31 178 -64 283.5t-331 105.5q-240 0 -371 -105.5t-163 -281.5zM305 670 l29 157q8 49 25.5 89t50 69t82 44t120.5 15q70 0 113 -15t65.5 -44t26.5 -68.5t-4 -89.5l-27 -157h-481zM469 1567q6 29 30.5 50t53.5 21q31 0 48 -21.5t11 -49.5q-6 -35 14.5 -59.5t55.5 -24.5t64.5 24.5t35.5 59.5q4 29 30 50t54 21q31 0 47.5 -21t12.5 -50 q-8 -47 -34 -89t-61.5 -73t-80.5 -49.5t-93 -18.5q-47 0 -86 18.5t-64.5 49.5t-35.5 73t-2 89z" />
<glyph unicode="&#xf6;" d="M31 385q-31 -178 63 -281.5t332 -103.5h375q37 0 68.5 26.5t39.5 65.5q6 41 -17.5 66.5t-60.5 25.5h-370q-72 0 -116 15.5t-65.5 44t-25.5 68.5t4 87l16 86h611q39 0 70.5 27t37.5 66l47 262q31 178 -64 283.5t-331 105.5q-240 0 -371 -105.5t-163 -281.5zM305 670 l29 157q8 49 25.5 89t50 69t82 44t120.5 15q70 0 113 -15t65.5 -44t26.5 -68.5t-4 -89.5l-27 -157h-481zM598 1556q4 33 31.5 57.5t60.5 24.5t50.5 -22t13.5 -55q-6 -33 -33 -58.5t-59 -25.5q-33 0 -51.5 23.5t-12.5 55.5z" />
<glyph unicode="&#xf7;" d="M31 385q-31 -178 63 -281.5t332 -103.5h375q37 0 68.5 26.5t39.5 65.5q6 41 -17.5 66.5t-60.5 25.5h-370q-72 0 -116 15.5t-65.5 44t-25.5 68.5t4 87l16 86h611q39 0 70.5 27t37.5 66l47 262q31 178 -64 283.5t-331 105.5q-240 0 -371 -105.5t-163 -281.5zM305 670 l29 157q8 49 25.5 89t50 69t82 44t120.5 15q70 0 113 -15t65.5 -44t26.5 -68.5t-4 -89.5l-27 -157h-481zM598 1556q4 33 31.5 57.5t60.5 24.5t50.5 -22t13.5 -55q-6 -33 -33 -58.5t-59 -25.5q-33 0 -51.5 23.5t-12.5 55.5z" />
<glyph unicode="&#xf8;" d="M31 385l80 455q31 178 162.5 283.5t371.5 105.5q238 0 332 -105.5t61 -285.5l-45 -263q-8 -39 -38.5 -65.5t-69.5 -26.5h-613l-14 -84q-8 -47 -5 -87t25.5 -68.5t65.5 -44t115 -15.5h372q35 0 58.5 -26.5t17.5 -65.5t-37.5 -65.5t-70.5 -26.5h-33q-31 -6 -54.5 -29.5 t-29.5 -54.5q-6 -35 14.5 -59.5t55.5 -24.5q29 0 46 -21.5t13 -50.5q-4 -31 -29.5 -52t-54.5 -21h-2q-47 0 -85 18.5t-63.5 49t-36 72.5t-1.5 89q6 41 28 84h-141q-238 0 -333 103.5t-62 281.5zM305 668h479l29 159q8 47 4 87t-26.5 69t-65.5 44t-113 15q-72 0 -121 -15 t-81.5 -44t-50 -69t-25.5 -87z" />
<glyph unicode="&#xf9;" d="M31 385l80 455q31 178 162.5 283.5t371.5 105.5q238 0 332 -105.5t61 -285.5l-45 -263q-8 -39 -38.5 -65.5t-69.5 -26.5h-613l-14 -84q-8 -47 -5 -87t25.5 -68.5t65.5 -44t115 -15.5h372q35 0 58.5 -26.5t17.5 -65.5t-37.5 -65.5t-70.5 -26.5h-33q-31 -6 -54.5 -29.5 t-29.5 -54.5q-6 -35 14.5 -59.5t55.5 -24.5q29 0 46 -21.5t13 -50.5q-4 -31 -29.5 -52t-54.5 -21h-2q-47 0 -85 18.5t-63.5 49t-36 72.5t-1.5 89q6 41 28 84h-141q-238 0 -333 103.5t-62 281.5zM305 668h479l29 159q8 47 4 87t-26.5 69t-65.5 44t-113 15q-72 0 -121 -15 t-81.5 -44t-50 -69t-25.5 -87z" />
<glyph unicode="&#xfa;" d="M31 385l80 457q33 176 163.5 281.5t370.5 105.5q236 0 331 -105.5t64 -283.5l-47 -262q-6 -39 -37.5 -66t-70.5 -27h-611l-16 -86q-8 -47 -4 -87t25.5 -68.5t65.5 -44t116 -15.5h370q37 0 60.5 -25.5t17.5 -66.5q-8 -39 -39.5 -65.5t-68.5 -26.5h-375q-238 0 -332 103.5 t-63 281.5zM305 670h481l27 157q8 49 4 89t-26.5 69t-65.5 44t-113 15q-72 0 -121 -15t-81.5 -44t-50 -68.5t-25.5 -89.5zM460.5 1562.5q0.5 32.5 22.5 55.5q23 23 55.5 21.5t55.5 -23.5l90 -90l123 90q31 23 63.5 23.5t47.5 -21.5q16 -23 9 -54.5t-40 -54.5l-174 -125 q-12 -10 -25.5 -15t-32.5 -5q-27 0 -49 20l-123 121q-23 25 -22.5 57.5z" />
<glyph unicode="&#xfb;" d="M31 385l80 457q33 176 163.5 281.5t370.5 105.5q236 0 331 -105.5t64 -283.5l-47 -262q-6 -39 -37.5 -66t-70.5 -27h-611l-16 -86q-8 -47 -4 -87t25.5 -68.5t65.5 -44t116 -15.5h370q37 0 60.5 -25.5t17.5 -66.5q-8 -39 -39.5 -65.5t-68.5 -26.5h-375q-238 0 -332 103.5 t-63 281.5zM305 670h481l27 157q8 49 4 89t-26.5 69t-65.5 44t-113 15q-72 0 -121 -15t-81.5 -44t-50 -68.5t-25.5 -89.5zM460.5 1562.5q0.5 32.5 22.5 55.5q23 23 55.5 21.5t55.5 -23.5l90 -90l123 90q31 23 63.5 23.5t47.5 -21.5q16 -23 9 -54.5t-40 -54.5l-174 -125 q-12 -10 -25.5 -15t-32.5 -5q-27 0 -49 20l-123 121q-23 25 -22.5 57.5z" />
<glyph unicode="&#xfc;" horiz-adv-x="1107" d="M49 385l80 457q33 176 164 281.5t371 105.5q236 0 331 -105.5t64 -283.5l-154 -865q-31 -180 -161 -282.5t-369 -102.5h-2q-47 0 -63.5 29t-9.5 63.5t34.5 63.5t71.5 29h2q70 0 118.5 15t81.5 44t50.5 69t25.5 87l8 49q-53 -18 -114.5 -28.5t-133.5 -10.5 q-238 0 -332 103.5t-63 281.5zM272 312q4 -40 25.5 -68.5t65.5 -44t116 -15.5q139 0 199.5 59.5t77.5 155.5l75 428q8 49 4 89t-26.5 69t-65.5 44t-112 15q-72 0 -121 -15t-82 -44t-50.5 -68.5t-25.5 -89.5l-76 -428q-8 -47 -4 -87zM452 1442q11 33 44 55q63 47 98 73.5 t53 39.5q20 14 27 18q14 10 41 10q12 0 23.5 -2t19.5 -8l131 -131q23 -23 23.5 -55.5t-21.5 -55.5q-23 -23 -55.5 -21.5t-55.5 24.5l-92 90l-123 -90q-31 -23 -62.5 -24t-47.5 21q-14 23 -3 56z" />
<glyph unicode="&#xfd;" horiz-adv-x="1107" d="M49 385l80 457q33 176 164 281.5t371 105.5q236 0 331 -105.5t64 -283.5l-154 -865q-31 -180 -161 -282.5t-369 -102.5h-2q-47 0 -63.5 29t-9.5 63.5t34.5 63.5t71.5 29h2q70 0 118.5 15t81.5 44t50.5 69t25.5 87l8 49q-53 -18 -114.5 -28.5t-133.5 -10.5 q-238 0 -332 103.5t-63 281.5zM272 312q4 -40 25.5 -68.5t65.5 -44t116 -15.5q139 0 199.5 59.5t77.5 155.5l75 428q8 49 4 89t-26.5 69t-65.5 44t-112 15q-72 0 -121 -15t-82 -44t-50.5 -68.5t-25.5 -89.5l-76 -428q-8 -47 -4 -87zM452 1442q11 33 44 55q63 47 98 73.5 t53 39.5q20 14 27 18q14 10 41 10q12 0 23.5 -2t19.5 -8l131 -131q23 -23 23.5 -55.5t-21.5 -55.5q-23 -23 -55.5 -21.5t-55.5 24.5l-92 90l-123 -90q-31 -23 -62.5 -24t-47.5 21q-14 23 -3 56z" />
<glyph unicode="&#xfe;" horiz-adv-x="1107" d="M49 385q-31 -178 63.5 -281.5t331.5 -103.5q72 0 133.5 10t114.5 29l-8 -49q-8 -47 -25.5 -87t-50.5 -69t-82 -44t-118 -15h-2q-43 0 -71 -29t-35 -63.5t9.5 -63.5t63.5 -29h2q240 0 369.5 102.5t160.5 282.5l154 865q31 178 -64 283.5t-331 105.5q-240 0 -371 -105.5 t-164 -281.5zM272 312q-4 40 4 87l76 428q8 49 25.5 89t50.5 69t82 44t121 15q70 0 112.5 -15t65 -44t27 -68.5t-4.5 -89.5l-75 -428q-16 -96 -77 -155.5t-200 -59.5q-72 0 -116 15.5t-65.5 44t-25.5 68.5zM485 1567q6 29 31 50t53 21q31 0 48.5 -21.5t11.5 -49.5 q-6 -35 14.5 -59.5t54.5 -24.5q35 0 65 24.5t36 59.5q4 29 29.5 50t54.5 21q31 0 47 -21t12 -50q-8 -47 -33.5 -89t-61.5 -73t-81 -49.5t-92 -18.5t-86 18.5t-64.5 49.5t-36 73t-2.5 89z" />
<glyph unicode="&#xff;" horiz-adv-x="1107" d="M49 385q-31 -178 63.5 -281.5t331.5 -103.5q72 0 133.5 10t114.5 29l-8 -49q-8 -47 -25.5 -87t-50.5 -69t-82 -44t-118 -15h-2q-43 0 -71 -29t-35 -63.5t9.5 -63.5t63.5 -29h2q240 0 369.5 102.5t160.5 282.5l154 865q31 178 -64 283.5t-331 105.5q-240 0 -371 -105.5 t-164 -281.5zM272 312q-4 40 4 87l76 428q8 49 25.5 89t50.5 69t82 44t121 15q70 0 112.5 -15t65 -44t27 -68.5t-4.5 -89.5l-75 -428q-16 -96 -77 -155.5t-200 -59.5q-72 0 -116 15.5t-65.5 44t-25.5 68.5zM485 1567q6 29 31 50t53 21q31 0 48.5 -21.5t11.5 -49.5 q-6 -35 14.5 -59.5t54.5 -24.5q35 0 65 24.5t36 59.5q4 29 29.5 50t54.5 21q31 0 47 -21t12 -50q-8 -47 -33.5 -89t-61.5 -73t-81 -49.5t-92 -18.5t-86 18.5t-64.5 49.5t-36 73t-2.5 89z" />
<glyph unicode="&#x152;" horiz-adv-x="1513" d="M25 385l81 455q31 178 160 282.5t367 106.5h751q39 0 60.5 -26.5t15.5 -65.5t-37.5 -66t-70.5 -27h-330q35 -86 12 -206l-30 -168h282q39 0 60.5 -27t15.5 -65q-8 -39 -39 -66t-70 -27h-280l-19 -100q-23 -119 -84 -201h330q39 0 60.5 -26.5t15.5 -65.5t-38 -65.5 t-71 -26.5h-751q-236 2 -329 104.5t-62 280.5zM248 312q4 -40 25.5 -68.5t65.5 -44t116 -15.5q139 0 200.5 59.5t77.5 155.5l74 428q8 47 4 87t-25.5 69t-64.5 45t-111 16h-6q-72 0 -120 -16t-80.5 -45t-50 -69t-25.5 -87l-76 -428q-8 -47 -4 -87z" />
<glyph unicode="&#x153;" horiz-adv-x="1513" d="M25 385l81 455q31 178 160 282.5t367 106.5h751q39 0 60.5 -26.5t15.5 -65.5t-37.5 -66t-70.5 -27h-330q35 -86 12 -206l-30 -168h282q39 0 60.5 -27t15.5 -65q-8 -39 -39 -66t-70 -27h-280l-19 -100q-23 -119 -84 -201h330q39 0 60.5 -26.5t15.5 -65.5t-38 -65.5 t-71 -26.5h-751q-236 2 -329 104.5t-62 280.5zM248 312q4 -40 25.5 -68.5t65.5 -44t116 -15.5q139 0 200.5 59.5t77.5 155.5l74 428q8 47 4 87t-25.5 69t-64.5 45t-111 16h-6q-72 0 -120 -16t-80.5 -45t-50 -69t-25.5 -87l-76 -428q-8 -47 -4 -87z" />
<glyph unicode="&#x178;" horiz-adv-x="720" d="M37 188q23 -104 101.5 -146t174.5 -42q72 0 144.5 12.5t128.5 63.5q23 23 34 61.5t-12 61.5q-20 20 -41.5 23t-42.5 -1q-23 -6 -47 -16q-53 -33 -108.5 -33t-94 24.5t-48 71.5t31.5 109q25 37 55.5 66.5t62.5 56t63.5 53.5t58.5 59q29 37 51 87.5t37 146.5 q4 37 -16.5 63.5t-55.5 30.5q-45 4 -80 -26.5t-41 -67.5q-14 -80 -50 -136.5t-79 -101.5t-88 -83t-78 -83q-41 -57 -58 -124t-3 -130zM428 1118q8 47 46 79t83 32t71.5 -32t18.5 -79q-10 -47 -47 -83t-84 -36q-45 0 -70.5 36t-17.5 83z" />
<glyph unicode="&#x2c6;" horiz-adv-x="569" d="M56.5 1442q11.5 33 43.5 55q63 47 98 73.5t54 39.5q20 14 27 18q14 10 40 10q12 0 23.5 -2t19.5 -8l132 -131q23 -23 23.5 -55.5t-21.5 -55.5q-23 -23 -55.5 -21.5t-55.5 24.5l-92 90l-123 -90q-31 -23 -62.5 -24t-48.5 21q-14 23 -2.5 56z" />
<glyph unicode="&#x2dc;" horiz-adv-x="522" d="M52 1548q9 21 24 35q23 23 56.5 39t68.5 16q27 0 47 -9t36.5 -20.5t30 -20.5t27.5 -9q29 0 49 20q16 14 37 17.5t33 -12.5q16 -20 7.5 -39t-24.5 -33q-23 -23 -55.5 -39t-66.5 -16q-29 0 -49.5 9t-37 20.5t-29.5 20.5t-26 9q-16 0 -30.5 -8t-24.5 -19q-31 -25 -59 0 q-23 18 -14 39z" />
<glyph unicode="&#x2000;" horiz-adv-x="820" />
<glyph unicode="&#x2001;" horiz-adv-x="1641" />
<glyph unicode="&#x2002;" horiz-adv-x="820" />
<glyph unicode="&#x2003;" horiz-adv-x="1641" />
<glyph unicode="&#x2004;" horiz-adv-x="547" />
<glyph unicode="&#x2005;" horiz-adv-x="410" />
<glyph unicode="&#x2006;" horiz-adv-x="273" />
<glyph unicode="&#x2007;" horiz-adv-x="273" />
<glyph unicode="&#x2008;" horiz-adv-x="205" />
<glyph unicode="&#x2009;" horiz-adv-x="328" />
<glyph unicode="&#x200a;" horiz-adv-x="91" />
<glyph unicode="&#x2010;" horiz-adv-x="1050" d="M53 612q8 45 44 75t79 30h735q43 0 69 -30t17 -75q-8 -43 -43.5 -73.5t-79.5 -30.5h-735q-43 0 -68.5 30.5t-17.5 73.5z" />
<glyph unicode="&#x2011;" horiz-adv-x="1050" d="M53 612q8 45 44 75t79 30h735q43 0 69 -30t17 -75q-8 -43 -43.5 -73.5t-79.5 -30.5h-735q-43 0 -68.5 30.5t-17.5 73.5z" />
<glyph unicode="&#x2012;" horiz-adv-x="1050" d="M53 612q8 45 44 75t79 30h735q43 0 69 -30t17 -75q-8 -43 -43.5 -73.5t-79.5 -30.5h-735q-43 0 -68.5 30.5t-17.5 73.5z" />
<glyph unicode="&#x2013;" horiz-adv-x="1861" d="M59 385l80 455q31 180 167 284.5t384 104.5h1026q47 0 74 -31t18 -78q-10 -45 -47 -76.5t-84 -31.5h-106l-232 -1309q-8 -47 -45 -79t-84 -32q-45 0 -71.5 32t-16.5 79l230 1309h-250q20 -78 2 -170l-199 -1133q-10 -49 -50 -83t-87 -34q-49 0 -77.5 34t-18.5 83l57 330 q-53 -18 -116.5 -28.5t-137.5 -10.5q-123 0 -210 27.5t-137 78t-67.5 122t-1.5 157.5zM291 312q4 -40 27.5 -68.5t68.5 -44t119 -15.5t125 15.5t84 44t51 66.5t27 85l75 432q20 117 -35 167t-176 50q-106 0 -185 -49t-101 -168l-76 -428q-8 -47 -4 -87z" />
<glyph unicode="&#x2014;" horiz-adv-x="325" d="M53 614q8 47 46 82t83 35q47 0 72.5 -35t15.5 -82q-8 -47 -45 -78.5t-82 -31.5q-47 0 -72.5 31.5t-17.5 78.5z" />
<glyph unicode="&#x2018;" horiz-adv-x="366" d="M145 1087l43 238q8 47 45 78t82 31q47 0 73 -31t18 -78l-41 -238q-8 -47 -46 -77.5t-83 -30.5t-72 30.5t-19 77.5z" />
<glyph unicode="&#x2019;" horiz-adv-x="366" d="M145 1087l43 238q8 47 45 78t82 31q47 0 73 -31t18 -78l-41 -238q-8 -47 -46 -77.5t-83 -30.5t-72 30.5t-19 77.5z" />
<glyph unicode="&#x201a;" horiz-adv-x="366" d="M-29 -119l43 238q8 47 45 77.5t82 30.5q47 0 72.5 -30.5t17.5 -77.5l-41 -238q-8 -47 -46 -77.5t-83 -30.5t-71.5 30.5t-18.5 77.5z" />
<glyph unicode="&#x201c;" horiz-adv-x="696" d="M147 1087l41 238q8 47 45 78t84 31q45 0 72 -31t19 -78l-43 -238q-8 -47 -45 -77.5t-84 -30.5q-45 0 -72 30.5t-17 77.5zM473 1087l43 238q8 47 45 78t84 31q45 0 71.5 -31t16.5 -78l-41 -238q-8 -47 -45 -77.5t-84 -30.5q-45 0 -71.5 30.5t-18.5 77.5z" />
<glyph unicode="&#x201d;" horiz-adv-x="696" d="M147 1087l41 238q8 47 45 78t84 31q45 0 72 -31t19 -78l-43 -238q-8 -47 -45 -77.5t-84 -30.5q-45 0 -72 30.5t-17 77.5zM473 1087l43 238q8 47 45 78t84 31q45 0 71.5 -31t16.5 -78l-41 -238q-8 -47 -45 -77.5t-84 -30.5q-45 0 -71.5 30.5t-18.5 77.5z" />
<glyph unicode="&#x201e;" horiz-adv-x="696" d="M-27 -119l41 238q8 47 45 77.5t84 30.5q45 0 72 -30.5t18 -77.5l-43 -238q-8 -47 -44.5 -77.5t-84.5 -30.5q-45 0 -71.5 30.5t-16.5 77.5zM299 -119l43 238q8 47 45 77.5t84 30.5q45 0 71.5 -30.5t16.5 -77.5l-41 -238q-8 -47 -45 -77.5t-84 -30.5q-45 0 -71.5 30.5 t-18.5 77.5z" />
<glyph unicode="&#x2022;" horiz-adv-x="380" d="M55 614q10 57 57.5 101.5t104.5 44.5t89 -44t22 -102q-10 -59 -57.5 -99t-104.5 -40q-55 0 -88 40t-23 99z" />
<glyph unicode="&#x2026;" horiz-adv-x="1171" d="M-8 111q8 47 46 81.5t83 34.5q47 0 72.5 -34.5t17.5 -81.5q-10 -47 -47 -79t-82 -32q-47 0 -72.5 31.5t-17.5 79.5zM436 111q8 47 46 81.5t83 34.5t71 -34.5t17 -81.5q-8 -47 -45 -79t-84 -32q-45 0 -71.5 31.5t-16.5 79.5zM879 111q8 47 46 81.5t83 34.5 q47 0 72.5 -34.5t15.5 -81.5q-8 -47 -45 -79t-82 -32q-47 0 -73 31.5t-17 79.5z" />
<glyph unicode="&#x202f;" horiz-adv-x="328" />
<glyph unicode="&#x2039;" horiz-adv-x="647" d="M52 615.5q7 37.5 38 64.5l361 305q31 27 68.5 27t60.5 -27t15.5 -63.5t-38.5 -65.5l-285 -242l199 -239q23 -29 16.5 -66t-38.5 -63q-31 -29 -69 -29t-61 29l-251 305q-23 27 -16 64.5z" />
<glyph unicode="&#x203a;" horiz-adv-x="649" d="M53 309.5q6 36.5 39 65.5l283 239l-199 242q-23 29 -15.5 65.5t38.5 63.5q33 27 69.5 27t59.5 -27l252 -305q23 -27 16.5 -64.5t-39.5 -64.5l-358 -305q-33 -29 -70 -29t-59 29q-23 27 -17 63.5z" />
<glyph unicode="&#x205f;" horiz-adv-x="410" />
<glyph unicode="&#x20ac;" horiz-adv-x="1263" d="M53 430q6 39 38 65.5t71 26.5h133q12 70 20.5 113t12.5 72h-133q-37 0 -59.5 26.5t-16.5 65.5q8 39 38.5 65.5t69.5 26.5h133q12 47 39 103.5t82.5 106.5t144.5 86t226 42q45 0 96 -4q43 -4 95.5 -13.5t105.5 -25.5q51 -16 59.5 -52t-10 -71t-53.5 -56.5t-72 -11.5 q-72 20 -118 31.5t-93 11.5q-20 0 -54 -3t-72 -16t-73.5 -43t-60.5 -85h346q39 0 61.5 -26.5t14.5 -65.5q-6 -39 -38 -65.5t-71 -26.5h-354q-10 -53 -18 -99.5t-15 -85.5h353q39 0 61.5 -26.5t13.5 -65.5q-6 -39 -37.5 -65.5t-68.5 -26.5h-352q0 -23 8 -48.5t30.5 -49 t65.5 -39t115 -15.5q16 0 58 3.5t71 7.5q14 2 35.5 9t45 11t46 3t35.5 -13q12 -12 23 -33.5t8 -46.5t-23.5 -49.5t-69.5 -40.5t-118.5 -25.5t-142.5 -11.5t-138.5 6t-106.5 25q-35 14 -68.5 32.5t-58 50t-38 85t-7.5 139.5h-139q-39 0 -60.5 26.5t-15.5 65.5z" />
<glyph unicode="&#x2122;" horiz-adv-x="581" d="M84 1417q4 16 20 17h136q18 0 14 -17q0 -6 -6 -11t-12 -5h-50l-30 -172q-4 -20 -23 -21q-8 0 -14 5.5t-4 15.5l30 172h-47q-18 0 -14 16zM236 1229l22 135q12 70 98 70q43 0 62 -19q24 19 67 19q86 0 74 -72l-24 -133q-4 -20 -23 -21q-23 0 -18 21l24 131q4 18 -4 29.5 t-33 11.5q-29 0 -38 -11.5t-13 -29.5l-24 -131q-4 -20 -25 -21q-20 0 -16 21l22 131q4 18 -3 29.5t-34 11.5t-37 -11.5t-14 -29.5l-23 -131q-4 -20 -24 -21q-20 0 -16 21z" />
<glyph unicode="&#xe000;" horiz-adv-x="1228" d="M0 0v1229h1229v-1229h-1229z" />
<glyph unicode="&#xfb01;" horiz-adv-x="1251" d="M53 113l127 729q33 178 162 281.5t365 105.5h399q47 0 73.5 -33t18.5 -80l-176 -1001q-8 -43 -49 -79t-84 -36q-47 0 -74 34t-18 81l164 929h-285q-70 0 -118 -16t-80 -45t-49 -69t-26 -87l-28 -157h243q39 0 60.5 -27t15.5 -65q-6 -39 -37.5 -66t-70.5 -27h-244 l-66 -372q-8 -45 -45.5 -79t-85.5 -34q-47 0 -73.5 33t-18.5 80z" />
<glyph unicode="&#xfb02;" horiz-adv-x="1644" d="M55 113l127 729q33 178 162 281.5t367 105.5h395h2q47 0 73.5 -33t18.5 -80l-164 -932h480q39 0 60 -26.5t15 -65.5t-37.5 -65.5t-70.5 -26.5h-592q-47 0 -73.5 34t-18.5 81l164 929h-285q-70 0 -118 -16t-79.5 -45t-49 -69t-25.5 -87l-29 -157h244q39 0 60 -27t15 -65 q-6 -39 -37.5 -66t-70.5 -27h-244l-65 -372q-8 -45 -46 -79t-86 -34q-47 0 -74.5 33t-17.5 80z" />
</font>
</defs>
</svg>
